<svg xmlns="http://www.w3.org/2000/svg" xmlns:xlink="http://www.w3.org/1999/xlink" width="900" zoomAndPan="magnify" viewBox="0 0 675 231" height="308" preserveAspectRatio="xMidYMid meet" version="1.0"><defs><g/></defs><rect x="-67.5" width="810" fill="#ffffff" y="-23.1" height="277.2" fill-opacity="1"/><rect x="-67.5" width="810" fill="#ffffff" y="-23.1" height="277.2" fill-opacity="1"/><rect x="-67.5" width="810" fill="#000000" y="-23.1" height="277.2" fill-opacity="1"/><g fill="#dc3c4d" fill-opacity="0.302"><g transform="translate(120.12902, 153.629613)"><g><path d="M 6.019531 20.890625 C 6.253906 21.363281 6.609375 21.71875 6.964844 21.835938 C 6.964844 21.835938 7.082031 21.953125 7.082031 21.953125 C 7.316406 21.953125 7.554688 21.835938 7.789062 21.597656 C 8.027344 21.363281 8.734375 19.355469 10.03125 15.699219 C 11.332031 12.039062 12.746094 7.789062 14.398438 2.949219 C 15.933594 -1.886719 17.824219 -7.554688 20.066406 -13.925781 C 22.308594 -20.183594 24.195312 -25.375 25.730469 -29.625 C 26.554688 -31.867188 27.265625 -33.875 27.972656 -35.527344 C 28.5625 -37.179688 29.152344 -38.59375 29.742188 -39.777344 C 30.6875 -41.898438 31.867188 -43.433594 33.167969 -44.261719 C 34.347656 -45.085938 36.351562 -45.675781 39.066406 -45.914062 C 40.484375 -46.03125 42.136719 -46.148438 44.023438 -46.148438 C 45.914062 -46.148438 48.039062 -46.265625 50.515625 -46.386719 C 54.765625 -46.621094 57.835938 -46.621094 59.722656 -46.503906 C 61.609375 -46.265625 62.554688 -46.03125 62.554688 -45.558594 C 62.554688 -45.203125 62.320312 -44.023438 61.730469 -41.898438 C 61.019531 -39.777344 60.3125 -37.414062 59.488281 -34.9375 C 58.425781 -31.984375 57.480469 -29.035156 56.652344 -26.085938 C 55.710938 -23.132812 55 -20.300781 54.410156 -17.585938 C 53.230469 -12.394531 52.523438 -8.261719 52.285156 -4.957031 C 51.933594 -1.535156 52.285156 -0.234375 53.347656 -1.0625 C 53.820312 -1.417969 54.53125 -2.597656 55.710938 -4.601562 C 56.773438 -6.492188 58.070312 -9.089844 59.722656 -12.394531 C 62.554688 -18.292969 65.976562 -26.085938 69.992188 -35.527344 C 74.003906 -44.96875 78.136719 -55 82.382812 -65.625 C 84.390625 -70.816406 86.515625 -76.011719 88.757812 -81.441406 C 90.882812 -86.75 92.535156 -90.644531 93.597656 -93.125 C 95.722656 -97.847656 96.785156 -101.269531 96.785156 -103.394531 C 96.785156 -105.28125 95.601562 -106.34375 93.480469 -106.34375 C 92.296875 -106.34375 91.117188 -105.519531 90.175781 -104.101562 C 89.113281 -102.566406 87.105469 -98.789062 84.15625 -92.652344 C 82.265625 -88.875 80.140625 -84.273438 77.78125 -79.078125 C 75.300781 -73.769531 73.296875 -69.28125 71.644531 -65.742188 C 69.046875 -59.839844 67.039062 -55.355469 65.859375 -52.523438 C 63.855469 -52.523438 62.4375 -52.640625 61.492188 -52.757812 C 60.195312 -52.757812 58.660156 -52.875 56.773438 -53.113281 C 54.882812 -53.113281 53.113281 -53.230469 51.695312 -53.46875 C 50.164062 -53.46875 48.390625 -53.585938 46.503906 -53.585938 C 44.378906 -53.585938 42.726562 -53.46875 41.308594 -53.347656 C 39.304688 -53.113281 38.003906 -53.113281 37.296875 -53.347656 C 36.589844 -53.585938 36.234375 -53.9375 36.234375 -54.648438 C 36.117188 -55 36.234375 -55.710938 36.589844 -56.773438 C 36.941406 -57.714844 37.414062 -59.015625 38.003906 -60.546875 C 39.066406 -63.382812 40.484375 -66.6875 42.253906 -70.464844 C 44.023438 -74.238281 45.796875 -77.664062 47.566406 -80.96875 C 49.21875 -84.15625 50.164062 -86.515625 50.28125 -88.167969 C 50.28125 -89.703125 49.570312 -90.410156 48.15625 -90.292969 C 47.566406 -90.175781 46.265625 -88.523438 44.144531 -85.453125 C 41.898438 -82.382812 39.539062 -78.605469 36.941406 -74.359375 C 35.527344 -71.996094 34.109375 -69.519531 32.695312 -67.039062 C 31.277344 -64.5625 29.980469 -62.203125 28.800781 -59.839844 C 27.5 -57.480469 26.203125 -55.472656 25.023438 -53.820312 C 23.84375 -52.167969 22.898438 -51.222656 22.308594 -50.988281 C 21.597656 -50.753906 20.300781 -50.398438 18.414062 -49.808594 C 16.289062 -49.101562 14.164062 -48.511719 11.921875 -47.800781 C 7.671875 -46.503906 4.839844 -45.324219 3.1875 -44.261719 C 2.007812 -43.433594 1.535156 -42.726562 1.535156 -42.019531 C 1.535156 -41.546875 1.769531 -41.191406 2.007812 -40.957031 C 2.242188 -40.484375 3.1875 -40.246094 4.601562 -40.367188 C 5.902344 -40.367188 8.027344 -40.71875 11.09375 -41.308594 C 13.335938 -41.664062 15.226562 -42.019531 16.878906 -42.253906 C 18.53125 -42.492188 19.355469 -42.492188 19.355469 -42.371094 C 19.355469 -42.253906 18.765625 -40.839844 17.824219 -38.125 C 16.761719 -35.289062 15.578125 -31.984375 14.164062 -28.207031 C 12.628906 -24.433594 11.210938 -20.417969 9.796875 -15.933594 C 8.378906 -11.332031 7.316406 -7.789062 6.726562 -5.3125 C 6.019531 -2.242188 5.546875 1.0625 5.3125 4.601562 C 4.957031 8.144531 4.839844 11.332031 5.074219 14.164062 C 5.074219 15.816406 5.074219 17.113281 5.3125 18.292969 C 5.429688 19.476562 5.664062 20.300781 6.019531 20.890625 Z M 6.019531 20.890625 "/></g></g></g><g fill="#dc3c4d" fill-opacity="0.302"><g transform="translate(195.076014, 153.629613)"><g><path d="M 40.246094 -45.558594 C 40.011719 -45.558594 39.777344 -45.675781 39.65625 -45.796875 C 39.421875 -45.796875 39.304688 -45.914062 39.066406 -45.914062 L 38.949219 -45.914062 C 38.359375 -45.914062 37.652344 -45.675781 36.941406 -45.441406 C 36 -45.085938 34.699219 -44.496094 33.167969 -43.671875 C 30.804688 -42.371094 28.800781 -41.546875 27.382812 -41.308594 C 25.964844 -40.957031 23.25 -40.71875 19.476562 -40.71875 C 16.050781 -40.601562 13.457031 -40.484375 11.804688 -40.246094 C 10.03125 -39.894531 8.378906 -39.304688 6.84375 -38.59375 C 3.894531 -37.179688 1.296875 -35.410156 -0.945312 -33.519531 C -3.304688 -31.515625 -4.722656 -29.625 -5.429688 -27.855469 C -6.019531 -26.4375 -6.253906 -25.496094 -6.253906 -25.023438 L -6.253906 -24.902344 C -6.253906 -24.3125 -6.019531 -23.605469 -5.3125 -22.660156 C -3.894531 -20.300781 -0.589844 -19.828125 4.367188 -21.128906 C 9.324219 -22.308594 15.933594 -25.496094 24.3125 -30.6875 C 26.675781 -32.105469 28.800781 -33.402344 30.570312 -34.464844 C 32.339844 -35.527344 33.285156 -36 33.402344 -35.761719 C 33.402344 -35.527344 33.285156 -34.820312 32.8125 -33.875 C 32.339844 -32.695312 31.984375 -31.515625 31.632812 -30.214844 C 30.570312 -26.203125 30.453125 -23.132812 31.394531 -20.773438 C 32.222656 -18.414062 34.109375 -16.640625 36.941406 -15.460938 C 38.59375 -14.636719 40.484375 -14.28125 42.492188 -14.28125 L 42.84375 -14.28125 C 44.851562 -14.28125 48.039062 -14.871094 52.285156 -15.933594 C 56.183594 -16.878906 60.785156 -18.292969 66.214844 -20.417969 C 71.527344 -22.425781 76.363281 -24.550781 80.851562 -26.792969 C 83.210938 -27.972656 85.335938 -29.035156 87.222656 -30.097656 C 88.992188 -31.160156 90.410156 -32.105469 91.355469 -33.046875 C 92.296875 -33.875 93.125 -34.464844 93.597656 -34.9375 C 91.707031 -34.699219 90.410156 -34.464844 89.582031 -34.464844 C 88.402344 -34.226562 85.808594 -33.636719 81.675781 -32.574219 C 77.425781 -31.394531 73.058594 -29.980469 68.457031 -28.445312 C 59.015625 -25.375 51.933594 -23.488281 47.210938 -22.78125 C 42.492188 -21.953125 39.65625 -22.1875 38.714844 -23.488281 C 38.003906 -24.3125 37.886719 -25.613281 38.242188 -27.5 C 38.476562 -29.152344 39.421875 -32.105469 40.957031 -36.351562 C 42.019531 -39.304688 42.492188 -41.429688 42.492188 -42.609375 C 42.253906 -43.789062 41.546875 -44.734375 40.246094 -45.558594 Z M 17.46875 -36.351562 C 17.824219 -36.351562 18.175781 -36.472656 18.648438 -36.472656 C 18.882812 -36.472656 19.238281 -36.589844 19.476562 -36.589844 C 20.300781 -36.589844 20.773438 -36.351562 20.890625 -36.117188 C 20.890625 -35.761719 20.300781 -35.289062 19.121094 -34.582031 C 16.996094 -33.167969 13.457031 -31.394531 8.5 -29.035156 C 4.25 -26.910156 1.417969 -25.847656 0.234375 -25.847656 C 0 -25.847656 -0.117188 -25.847656 -0.117188 -25.964844 C -0.355469 -25.964844 -0.589844 -26.085938 -0.589844 -26.320312 C -0.589844 -26.910156 0.589844 -28.207031 2.949219 -30.332031 C 4.839844 -31.984375 7.082031 -33.285156 9.679688 -34.226562 C 12.273438 -35.171875 14.871094 -35.878906 17.46875 -36.351562 Z M 51.933594 -43.90625 C 52.285156 -44.023438 52.523438 -44.496094 52.523438 -45.324219 C 52.285156 -45.796875 52.167969 -46.148438 52.167969 -46.503906 C 51.933594 -47.210938 51.578125 -48.15625 50.988281 -49.453125 C 50.398438 -50.632812 49.691406 -52.167969 48.863281 -54.058594 L 46.265625 -59.488281 C 45.796875 -60.195312 45.441406 -60.785156 45.203125 -61.375 C 44.96875 -61.964844 44.734375 -62.554688 44.613281 -63.144531 C 44.144531 -63.855469 43.90625 -64.679688 43.789062 -65.507812 C 43.550781 -65.742188 43.433594 -65.976562 43.199219 -66.214844 C 42.960938 -66.449219 42.84375 -66.804688 42.726562 -67.039062 C 42.253906 -67.394531 41.898438 -67.867188 41.429688 -68.457031 C 40.957031 -68.929688 40.367188 -69.28125 39.777344 -69.28125 C 39.304688 -69.164062 38.949219 -69.046875 38.714844 -68.8125 C 38.476562 -68.574219 38.242188 -68.339844 38.003906 -68.101562 C 37.414062 -67.394531 37.0625 -66.6875 36.824219 -65.859375 C 37.0625 -62.910156 38.125 -59.722656 39.894531 -56.417969 C 41.546875 -53.113281 43.789062 -49.925781 46.621094 -47.09375 C 47.328125 -46.265625 48.039062 -45.675781 48.628906 -45.203125 C 49.21875 -44.734375 49.691406 -44.378906 50.042969 -44.144531 C 50.515625 -43.671875 50.871094 -43.550781 51.34375 -43.789062 C 51.460938 -43.789062 51.578125 -43.789062 51.578125 -43.789062 C 51.578125 -43.789062 51.695312 -43.90625 51.933594 -43.90625 Z M 51.933594 -43.90625 "/></g></g></g><g fill="#dc3c4d" fill-opacity="0.302"><g transform="translate(284.5403, 153.629613)"><g/></g></g><g fill="#dc3c4d" fill-opacity="0.302"><g transform="translate(317.115687, 153.629613)"><g><path d="M 6.492188 5.429688 C 7.4375 6.253906 8.5 6.726562 9.558594 6.964844 C 10.152344 7.199219 10.859375 7.199219 11.566406 7.199219 C 12.039062 7.199219 12.511719 7.199219 12.984375 7.082031 C 14.515625 6.84375 16.171875 5.902344 18.058594 4.25 C 19.710938 2.597656 21.953125 -0.472656 24.785156 -4.839844 C 26.203125 -7.082031 27.855469 -9.796875 29.742188 -13.101562 C 31.515625 -16.171875 33.636719 -19.945312 36 -24.195312 C 38.125 -28.207031 40.246094 -32.105469 42.371094 -35.644531 C 44.261719 -39.066406 46.265625 -42.492188 48.273438 -45.796875 C 51.816406 -51.933594 55.589844 -58.1875 59.605469 -64.324219 C 63.5 -70.464844 68.101562 -77.664062 73.53125 -85.808594 C 76.601562 -90.527344 79.433594 -94.777344 81.792969 -98.554688 C 84.15625 -102.332031 85.453125 -104.457031 85.6875 -105.046875 C 85.808594 -105.519531 85.925781 -105.871094 85.925781 -106.109375 C 85.925781 -106.578125 85.6875 -106.933594 85.21875 -106.933594 C 84.863281 -106.933594 84.507812 -106.816406 84.035156 -106.578125 C 82.382812 -105.871094 80.023438 -104.457031 77.191406 -102.214844 C 75.539062 -100.914062 73.886719 -99.5 72.117188 -97.847656 C 70.226562 -96.074219 68.457031 -94.1875 66.566406 -92.296875 C 60.546875 -86.160156 53.9375 -77.546875 46.621094 -66.332031 C 39.1875 -55 31.160156 -41.429688 22.660156 -25.375 C 19.476562 -19.59375 17.230469 -15.699219 15.933594 -13.691406 C 14.515625 -11.683594 13.457031 -10.859375 12.863281 -11.332031 C 12.746094 -11.332031 12.628906 -13.691406 12.628906 -18.175781 C 12.628906 -22.660156 12.511719 -27.617188 12.511719 -33.046875 C 12.394531 -36.589844 12.394531 -40.128906 12.394531 -43.433594 C 12.273438 -46.738281 12.15625 -49.335938 12.15625 -51.460938 C 11.921875 -56.183594 11.804688 -60.195312 11.683594 -63.734375 C 11.566406 -67.039062 11.449219 -69.992188 11.332031 -72.351562 C 11.09375 -77.78125 10.859375 -80.851562 10.621094 -81.792969 C 10.386719 -82.621094 9.914062 -82.972656 9.441406 -82.738281 C 8.734375 -82.265625 7.90625 -79.199219 7.082031 -73.296875 C 6.253906 -67.394531 5.429688 -60.546875 4.722656 -52.757812 C 4.367188 -49.335938 4.132812 -45.914062 3.894531 -42.492188 C 3.660156 -38.949219 3.421875 -35.410156 3.1875 -32.105469 C 2.714844 -25.847656 2.480469 -20.183594 2.359375 -15.226562 L 2.359375 -10.976562 C 2.359375 -8.027344 2.359375 -5.785156 2.597656 -4.367188 C 3.070312 -1.0625 3.539062 1.179688 4.011719 2.242188 C 4.367188 3.421875 5.191406 4.484375 6.492188 5.429688 Z M 6.492188 5.429688 "/></g></g></g><g fill="#dc3c4d" fill-opacity="0.302"><g transform="translate(375.184854, 153.629613)"><g><path d="M 40.246094 -45.558594 C 40.011719 -45.558594 39.777344 -45.675781 39.65625 -45.796875 C 39.421875 -45.796875 39.304688 -45.914062 39.066406 -45.914062 L 38.949219 -45.914062 C 38.359375 -45.914062 37.652344 -45.675781 36.941406 -45.441406 C 36 -45.085938 34.699219 -44.496094 33.167969 -43.671875 C 30.804688 -42.371094 28.800781 -41.546875 27.382812 -41.308594 C 25.964844 -40.957031 23.25 -40.71875 19.476562 -40.71875 C 16.050781 -40.601562 13.457031 -40.484375 11.804688 -40.246094 C 10.03125 -39.894531 8.378906 -39.304688 6.84375 -38.59375 C 3.894531 -37.179688 1.296875 -35.410156 -0.945312 -33.519531 C -3.304688 -31.515625 -4.722656 -29.625 -5.429688 -27.855469 C -6.019531 -26.4375 -6.253906 -25.496094 -6.253906 -25.023438 L -6.253906 -24.902344 C -6.253906 -24.3125 -6.019531 -23.605469 -5.3125 -22.660156 C -3.894531 -20.300781 -0.589844 -19.828125 4.367188 -21.128906 C 9.324219 -22.308594 15.933594 -25.496094 24.3125 -30.6875 C 26.675781 -32.105469 28.800781 -33.402344 30.570312 -34.464844 C 32.339844 -35.527344 33.285156 -36 33.402344 -35.761719 C 33.402344 -35.527344 33.285156 -34.820312 32.8125 -33.875 C 32.339844 -32.695312 31.984375 -31.515625 31.632812 -30.214844 C 30.570312 -26.203125 30.453125 -23.132812 31.394531 -20.773438 C 32.222656 -18.414062 34.109375 -16.640625 36.941406 -15.460938 C 38.59375 -14.636719 40.484375 -14.28125 42.492188 -14.28125 L 42.84375 -14.28125 C 44.851562 -14.28125 48.039062 -14.871094 52.285156 -15.933594 C 56.183594 -16.878906 60.785156 -18.292969 66.214844 -20.417969 C 71.527344 -22.425781 76.363281 -24.550781 80.851562 -26.792969 C 83.210938 -27.972656 85.335938 -29.035156 87.222656 -30.097656 C 88.992188 -31.160156 90.410156 -32.105469 91.355469 -33.046875 C 92.296875 -33.875 93.125 -34.464844 93.597656 -34.9375 C 91.707031 -34.699219 90.410156 -34.464844 89.582031 -34.464844 C 88.402344 -34.226562 85.808594 -33.636719 81.675781 -32.574219 C 77.425781 -31.394531 73.058594 -29.980469 68.457031 -28.445312 C 59.015625 -25.375 51.933594 -23.488281 47.210938 -22.78125 C 42.492188 -21.953125 39.65625 -22.1875 38.714844 -23.488281 C 38.003906 -24.3125 37.886719 -25.613281 38.242188 -27.5 C 38.476562 -29.152344 39.421875 -32.105469 40.957031 -36.351562 C 42.019531 -39.304688 42.492188 -41.429688 42.492188 -42.609375 C 42.253906 -43.789062 41.546875 -44.734375 40.246094 -45.558594 Z M 17.46875 -36.351562 C 17.824219 -36.351562 18.175781 -36.472656 18.648438 -36.472656 C 18.882812 -36.472656 19.238281 -36.589844 19.476562 -36.589844 C 20.300781 -36.589844 20.773438 -36.351562 20.890625 -36.117188 C 20.890625 -35.761719 20.300781 -35.289062 19.121094 -34.582031 C 16.996094 -33.167969 13.457031 -31.394531 8.5 -29.035156 C 4.25 -26.910156 1.417969 -25.847656 0.234375 -25.847656 C 0 -25.847656 -0.117188 -25.847656 -0.117188 -25.964844 C -0.355469 -25.964844 -0.589844 -26.085938 -0.589844 -26.320312 C -0.589844 -26.910156 0.589844 -28.207031 2.949219 -30.332031 C 4.839844 -31.984375 7.082031 -33.285156 9.679688 -34.226562 C 12.273438 -35.171875 14.871094 -35.878906 17.46875 -36.351562 Z M 44.734375 -53.347656 C 45.675781 -52.167969 46.503906 -51.695312 46.976562 -51.695312 C 47.09375 -51.695312 47.210938 -51.695312 47.449219 -51.816406 C 47.917969 -52.167969 48.390625 -53.585938 48.628906 -56.0625 C 48.746094 -56.890625 48.863281 -57.714844 48.863281 -58.542969 C 48.863281 -59.25 48.746094 -60.078125 48.628906 -60.902344 C 48.390625 -62.320312 47.917969 -64.796875 46.976562 -68.339844 C 46.03125 -72.117188 45.324219 -74.476562 45.085938 -75.421875 C 44.613281 -76.246094 44.144531 -76.953125 43.433594 -77.425781 C 42.492188 -78.015625 41.429688 -78.371094 40.367188 -78.371094 L 40.011719 -78.371094 C 38.832031 -78.253906 37.769531 -77.898438 36.824219 -77.191406 C 36.472656 -76.835938 35.644531 -75.65625 34.347656 -73.769531 C 33.046875 -71.878906 31.632812 -69.753906 30.214844 -67.394531 C 28.800781 -65.035156 27.382812 -62.792969 26.085938 -60.667969 C 24.785156 -58.542969 23.960938 -57.125 23.605469 -56.652344 C 22.898438 -55.710938 22.660156 -54.882812 22.660156 -54.292969 L 22.78125 -54.175781 C 22.78125 -53.46875 23.25 -53.230469 24.195312 -53.347656 C 24.433594 -53.347656 25.257812 -54.292969 26.554688 -55.945312 C 27.972656 -57.597656 29.390625 -59.488281 31.042969 -61.730469 C 31.75 -62.910156 32.574219 -64.207031 33.519531 -65.386719 C 34.226562 -66.566406 35.054688 -67.628906 35.761719 -68.8125 C 37.179688 -71.289062 38.242188 -72.46875 38.832031 -72.351562 C 39.304688 -72.351562 39.777344 -70.933594 40.246094 -68.101562 C 40.71875 -64.207031 41.429688 -61.140625 42.136719 -58.777344 C 42.84375 -56.183594 43.789062 -54.410156 44.734375 -53.347656 Z M 44.734375 -53.347656 "/></g></g></g><g fill="#dc3c4d" fill-opacity="0.302"><g transform="translate(464.649157, 153.629613)"><g><path d="M -2.714844 -16.878906 C -2.125 -16.171875 -1.296875 -15.933594 -0.355469 -15.933594 C 0.355469 -15.933594 1.179688 -16.171875 2.125 -16.640625 C 4.132812 -17.585938 6.609375 -19.828125 9.679688 -23.132812 C 16.878906 -30.921875 22.425781 -36.707031 26.4375 -40.71875 C 30.453125 -44.613281 32.574219 -46.386719 32.929688 -46.148438 C 33.167969 -45.914062 33.167969 -44.96875 32.929688 -43.316406 C 32.695312 -41.664062 32.339844 -39.65625 31.867188 -37.53125 C 30.570312 -31.867188 29.980469 -27.855469 30.214844 -25.257812 C 30.214844 -22.660156 31.160156 -20.535156 32.8125 -18.882812 C 34.699219 -16.878906 37.652344 -16.289062 41.429688 -16.996094 C 45.085938 -17.703125 49.808594 -19.476562 55.710938 -22.308594 C 61.847656 -25.375 67.511719 -28.089844 72.46875 -30.570312 C 77.425781 -32.929688 80.378906 -34.582031 81.203125 -35.289062 C 78.84375 -35.410156 76.363281 -35.171875 73.769531 -34.582031 C 71.054688 -33.875 68.339844 -33.046875 65.507812 -32.105469 C 60.3125 -30.214844 55.238281 -28.089844 50.28125 -25.964844 C 45.324219 -23.84375 41.429688 -22.898438 38.59375 -23.25 C 37.414062 -23.605469 36.824219 -25.023438 36.824219 -27.617188 C 36.824219 -29.980469 37.296875 -33.285156 38.476562 -37.414062 C 38.949219 -39.066406 39.304688 -41.074219 39.65625 -43.199219 C 39.894531 -45.324219 40.128906 -46.976562 40.128906 -48.390625 C 40.128906 -50.28125 39.894531 -51.695312 39.65625 -52.523438 C 39.304688 -53.230469 38.59375 -53.820312 37.414062 -54.410156 C 36.824219 -54.648438 36.234375 -54.765625 35.527344 -54.765625 C 33.875 -54.765625 31.984375 -53.9375 29.980469 -52.523438 C 26.910156 -50.28125 21.835938 -45.441406 14.871094 -38.125 C 9.558594 -32.574219 5.546875 -28.445312 2.949219 -25.613281 C 3.304688 -28.5625 3.539062 -30.804688 3.777344 -32.339844 C 4.367188 -38.003906 4.722656 -41.429688 4.722656 -42.726562 C 4.601562 -44.023438 4.132812 -44.734375 3.304688 -44.734375 C 2.597656 -44.734375 1.769531 -43.550781 0.945312 -41.429688 C 0 -39.1875 -0.707031 -36.589844 -1.417969 -33.757812 C -2.359375 -30.097656 -2.949219 -26.554688 -3.1875 -23.132812 C -3.421875 -21.953125 -3.421875 -20.890625 -3.421875 -20.066406 C -3.421875 -18.414062 -3.1875 -17.351562 -2.714844 -16.878906 Z M -2.714844 -16.878906 "/></g></g></g><g fill="#dc3c4d" fill-opacity="0.502"><g transform="translate(123.385588, 151.433037)"><g><path d="M 6.019531 20.890625 C 6.253906 21.363281 6.609375 21.71875 6.964844 21.835938 C 6.964844 21.835938 7.082031 21.953125 7.082031 21.953125 C 7.316406 21.953125 7.554688 21.835938 7.789062 21.597656 C 8.027344 21.363281 8.734375 19.355469 10.03125 15.699219 C 11.332031 12.039062 12.746094 7.789062 14.398438 2.949219 C 15.933594 -1.886719 17.824219 -7.554688 20.066406 -13.925781 C 22.308594 -20.183594 24.195312 -25.375 25.730469 -29.625 C 26.554688 -31.867188 27.265625 -33.875 27.972656 -35.527344 C 28.5625 -37.179688 29.152344 -38.59375 29.742188 -39.777344 C 30.6875 -41.898438 31.867188 -43.433594 33.167969 -44.261719 C 34.347656 -45.085938 36.351562 -45.675781 39.066406 -45.914062 C 40.484375 -46.03125 42.136719 -46.148438 44.023438 -46.148438 C 45.914062 -46.148438 48.039062 -46.265625 50.515625 -46.386719 C 54.765625 -46.621094 57.835938 -46.621094 59.722656 -46.503906 C 61.609375 -46.265625 62.554688 -46.03125 62.554688 -45.558594 C 62.554688 -45.203125 62.320312 -44.023438 61.730469 -41.898438 C 61.019531 -39.777344 60.3125 -37.414062 59.488281 -34.9375 C 58.425781 -31.984375 57.480469 -29.035156 56.652344 -26.085938 C 55.710938 -23.132812 55 -20.300781 54.410156 -17.585938 C 53.230469 -12.394531 52.523438 -8.261719 52.285156 -4.957031 C 51.933594 -1.535156 52.285156 -0.234375 53.347656 -1.0625 C 53.820312 -1.417969 54.53125 -2.597656 55.710938 -4.601562 C 56.773438 -6.492188 58.070312 -9.089844 59.722656 -12.394531 C 62.554688 -18.292969 65.976562 -26.085938 69.992188 -35.527344 C 74.003906 -44.96875 78.136719 -55 82.382812 -65.625 C 84.390625 -70.816406 86.515625 -76.011719 88.757812 -81.441406 C 90.882812 -86.75 92.535156 -90.644531 93.597656 -93.125 C 95.722656 -97.847656 96.785156 -101.269531 96.785156 -103.394531 C 96.785156 -105.28125 95.601562 -106.34375 93.480469 -106.34375 C 92.296875 -106.34375 91.117188 -105.519531 90.175781 -104.101562 C 89.113281 -102.566406 87.105469 -98.789062 84.15625 -92.652344 C 82.265625 -88.875 80.140625 -84.273438 77.78125 -79.078125 C 75.300781 -73.769531 73.296875 -69.28125 71.644531 -65.742188 C 69.046875 -59.839844 67.039062 -55.355469 65.859375 -52.523438 C 63.855469 -52.523438 62.4375 -52.640625 61.492188 -52.757812 C 60.195312 -52.757812 58.660156 -52.875 56.773438 -53.113281 C 54.882812 -53.113281 53.113281 -53.230469 51.695312 -53.46875 C 50.164062 -53.46875 48.390625 -53.585938 46.503906 -53.585938 C 44.378906 -53.585938 42.726562 -53.46875 41.308594 -53.347656 C 39.304688 -53.113281 38.003906 -53.113281 37.296875 -53.347656 C 36.589844 -53.585938 36.234375 -53.9375 36.234375 -54.648438 C 36.117188 -55 36.234375 -55.710938 36.589844 -56.773438 C 36.941406 -57.714844 37.414062 -59.015625 38.003906 -60.546875 C 39.066406 -63.382812 40.484375 -66.6875 42.253906 -70.464844 C 44.023438 -74.238281 45.796875 -77.664062 47.566406 -80.96875 C 49.21875 -84.15625 50.164062 -86.515625 50.28125 -88.167969 C 50.28125 -89.703125 49.570312 -90.410156 48.15625 -90.292969 C 47.566406 -90.175781 46.265625 -88.523438 44.144531 -85.453125 C 41.898438 -82.382812 39.539062 -78.605469 36.941406 -74.359375 C 35.527344 -71.996094 34.109375 -69.519531 32.695312 -67.039062 C 31.277344 -64.5625 29.980469 -62.203125 28.800781 -59.839844 C 27.5 -57.480469 26.203125 -55.472656 25.023438 -53.820312 C 23.84375 -52.167969 22.898438 -51.222656 22.308594 -50.988281 C 21.597656 -50.753906 20.300781 -50.398438 18.414062 -49.808594 C 16.289062 -49.101562 14.164062 -48.511719 11.921875 -47.800781 C 7.671875 -46.503906 4.839844 -45.324219 3.1875 -44.261719 C 2.007812 -43.433594 1.535156 -42.726562 1.535156 -42.019531 C 1.535156 -41.546875 1.769531 -41.191406 2.007812 -40.957031 C 2.242188 -40.484375 3.1875 -40.246094 4.601562 -40.367188 C 5.902344 -40.367188 8.027344 -40.71875 11.09375 -41.308594 C 13.335938 -41.664062 15.226562 -42.019531 16.878906 -42.253906 C 18.53125 -42.492188 19.355469 -42.492188 19.355469 -42.371094 C 19.355469 -42.253906 18.765625 -40.839844 17.824219 -38.125 C 16.761719 -35.289062 15.578125 -31.984375 14.164062 -28.207031 C 12.628906 -24.433594 11.210938 -20.417969 9.796875 -15.933594 C 8.378906 -11.332031 7.316406 -7.789062 6.726562 -5.3125 C 6.019531 -2.242188 5.546875 1.0625 5.3125 4.601562 C 4.957031 8.144531 4.839844 11.332031 5.074219 14.164062 C 5.074219 15.816406 5.074219 17.113281 5.3125 18.292969 C 5.429688 19.476562 5.664062 20.300781 6.019531 20.890625 Z M 6.019531 20.890625 "/></g></g></g><g fill="#dc3c4d" fill-opacity="0.502"><g transform="translate(198.332581, 151.433037)"><g><path d="M 40.246094 -45.558594 C 40.011719 -45.558594 39.777344 -45.675781 39.65625 -45.796875 C 39.421875 -45.796875 39.304688 -45.914062 39.066406 -45.914062 L 38.949219 -45.914062 C 38.359375 -45.914062 37.652344 -45.675781 36.941406 -45.441406 C 36 -45.085938 34.699219 -44.496094 33.167969 -43.671875 C 30.804688 -42.371094 28.800781 -41.546875 27.382812 -41.308594 C 25.964844 -40.957031 23.25 -40.71875 19.476562 -40.71875 C 16.050781 -40.601562 13.457031 -40.484375 11.804688 -40.246094 C 10.03125 -39.894531 8.378906 -39.304688 6.84375 -38.59375 C 3.894531 -37.179688 1.296875 -35.410156 -0.945312 -33.519531 C -3.304688 -31.515625 -4.722656 -29.625 -5.429688 -27.855469 C -6.019531 -26.4375 -6.253906 -25.496094 -6.253906 -25.023438 L -6.253906 -24.902344 C -6.253906 -24.3125 -6.019531 -23.605469 -5.3125 -22.660156 C -3.894531 -20.300781 -0.589844 -19.828125 4.367188 -21.128906 C 9.324219 -22.308594 15.933594 -25.496094 24.3125 -30.6875 C 26.675781 -32.105469 28.800781 -33.402344 30.570312 -34.464844 C 32.339844 -35.527344 33.285156 -36 33.402344 -35.761719 C 33.402344 -35.527344 33.285156 -34.820312 32.8125 -33.875 C 32.339844 -32.695312 31.984375 -31.515625 31.632812 -30.214844 C 30.570312 -26.203125 30.453125 -23.132812 31.394531 -20.773438 C 32.222656 -18.414062 34.109375 -16.640625 36.941406 -15.460938 C 38.59375 -14.636719 40.484375 -14.28125 42.492188 -14.28125 L 42.84375 -14.28125 C 44.851562 -14.28125 48.039062 -14.871094 52.285156 -15.933594 C 56.183594 -16.878906 60.785156 -18.292969 66.214844 -20.417969 C 71.527344 -22.425781 76.363281 -24.550781 80.851562 -26.792969 C 83.210938 -27.972656 85.335938 -29.035156 87.222656 -30.097656 C 88.992188 -31.160156 90.410156 -32.105469 91.355469 -33.046875 C 92.296875 -33.875 93.125 -34.464844 93.597656 -34.9375 C 91.707031 -34.699219 90.410156 -34.464844 89.582031 -34.464844 C 88.402344 -34.226562 85.808594 -33.636719 81.675781 -32.574219 C 77.425781 -31.394531 73.058594 -29.980469 68.457031 -28.445312 C 59.015625 -25.375 51.933594 -23.488281 47.210938 -22.78125 C 42.492188 -21.953125 39.65625 -22.1875 38.714844 -23.488281 C 38.003906 -24.3125 37.886719 -25.613281 38.242188 -27.5 C 38.476562 -29.152344 39.421875 -32.105469 40.957031 -36.351562 C 42.019531 -39.304688 42.492188 -41.429688 42.492188 -42.609375 C 42.253906 -43.789062 41.546875 -44.734375 40.246094 -45.558594 Z M 17.46875 -36.351562 C 17.824219 -36.351562 18.175781 -36.472656 18.648438 -36.472656 C 18.882812 -36.472656 19.238281 -36.589844 19.476562 -36.589844 C 20.300781 -36.589844 20.773438 -36.351562 20.890625 -36.117188 C 20.890625 -35.761719 20.300781 -35.289062 19.121094 -34.582031 C 16.996094 -33.167969 13.457031 -31.394531 8.5 -29.035156 C 4.25 -26.910156 1.417969 -25.847656 0.234375 -25.847656 C 0 -25.847656 -0.117188 -25.847656 -0.117188 -25.964844 C -0.355469 -25.964844 -0.589844 -26.085938 -0.589844 -26.320312 C -0.589844 -26.910156 0.589844 -28.207031 2.949219 -30.332031 C 4.839844 -31.984375 7.082031 -33.285156 9.679688 -34.226562 C 12.273438 -35.171875 14.871094 -35.878906 17.46875 -36.351562 Z M 51.933594 -43.90625 C 52.285156 -44.023438 52.523438 -44.496094 52.523438 -45.324219 C 52.285156 -45.796875 52.167969 -46.148438 52.167969 -46.503906 C 51.933594 -47.210938 51.578125 -48.15625 50.988281 -49.453125 C 50.398438 -50.632812 49.691406 -52.167969 48.863281 -54.058594 L 46.265625 -59.488281 C 45.796875 -60.195312 45.441406 -60.785156 45.203125 -61.375 C 44.96875 -61.964844 44.734375 -62.554688 44.613281 -63.144531 C 44.144531 -63.855469 43.90625 -64.679688 43.789062 -65.507812 C 43.550781 -65.742188 43.433594 -65.976562 43.199219 -66.214844 C 42.960938 -66.449219 42.84375 -66.804688 42.726562 -67.039062 C 42.253906 -67.394531 41.898438 -67.867188 41.429688 -68.457031 C 40.957031 -68.929688 40.367188 -69.28125 39.777344 -69.28125 C 39.304688 -69.164062 38.949219 -69.046875 38.714844 -68.8125 C 38.476562 -68.574219 38.242188 -68.339844 38.003906 -68.101562 C 37.414062 -67.394531 37.0625 -66.6875 36.824219 -65.859375 C 37.0625 -62.910156 38.125 -59.722656 39.894531 -56.417969 C 41.546875 -53.113281 43.789062 -49.925781 46.621094 -47.09375 C 47.328125 -46.265625 48.039062 -45.675781 48.628906 -45.203125 C 49.21875 -44.734375 49.691406 -44.378906 50.042969 -44.144531 C 50.515625 -43.671875 50.871094 -43.550781 51.34375 -43.789062 C 51.460938 -43.789062 51.578125 -43.789062 51.578125 -43.789062 C 51.578125 -43.789062 51.695312 -43.90625 51.933594 -43.90625 Z M 51.933594 -43.90625 "/></g></g></g><g fill="#dc3c4d" fill-opacity="0.502"><g transform="translate(287.796867, 151.433037)"><g/></g></g><g fill="#dc3c4d" fill-opacity="0.502"><g transform="translate(320.372254, 151.433037)"><g><path d="M 6.492188 5.429688 C 7.4375 6.253906 8.5 6.726562 9.558594 6.964844 C 10.152344 7.199219 10.859375 7.199219 11.566406 7.199219 C 12.039062 7.199219 12.511719 7.199219 12.984375 7.082031 C 14.515625 6.84375 16.171875 5.902344 18.058594 4.25 C 19.710938 2.597656 21.953125 -0.472656 24.785156 -4.839844 C 26.203125 -7.082031 27.855469 -9.796875 29.742188 -13.101562 C 31.515625 -16.171875 33.636719 -19.945312 36 -24.195312 C 38.125 -28.207031 40.246094 -32.105469 42.371094 -35.644531 C 44.261719 -39.066406 46.265625 -42.492188 48.273438 -45.796875 C 51.816406 -51.933594 55.589844 -58.1875 59.605469 -64.324219 C 63.5 -70.464844 68.101562 -77.664062 73.53125 -85.808594 C 76.601562 -90.527344 79.433594 -94.777344 81.792969 -98.554688 C 84.15625 -102.332031 85.453125 -104.457031 85.6875 -105.046875 C 85.808594 -105.519531 85.925781 -105.871094 85.925781 -106.109375 C 85.925781 -106.578125 85.6875 -106.933594 85.21875 -106.933594 C 84.863281 -106.933594 84.507812 -106.816406 84.035156 -106.578125 C 82.382812 -105.871094 80.023438 -104.457031 77.191406 -102.214844 C 75.539062 -100.914062 73.886719 -99.5 72.117188 -97.847656 C 70.226562 -96.074219 68.457031 -94.1875 66.566406 -92.296875 C 60.546875 -86.160156 53.9375 -77.546875 46.621094 -66.332031 C 39.1875 -55 31.160156 -41.429688 22.660156 -25.375 C 19.476562 -19.59375 17.230469 -15.699219 15.933594 -13.691406 C 14.515625 -11.683594 13.457031 -10.859375 12.863281 -11.332031 C 12.746094 -11.332031 12.628906 -13.691406 12.628906 -18.175781 C 12.628906 -22.660156 12.511719 -27.617188 12.511719 -33.046875 C 12.394531 -36.589844 12.394531 -40.128906 12.394531 -43.433594 C 12.273438 -46.738281 12.15625 -49.335938 12.15625 -51.460938 C 11.921875 -56.183594 11.804688 -60.195312 11.683594 -63.734375 C 11.566406 -67.039062 11.449219 -69.992188 11.332031 -72.351562 C 11.09375 -77.78125 10.859375 -80.851562 10.621094 -81.792969 C 10.386719 -82.621094 9.914062 -82.972656 9.441406 -82.738281 C 8.734375 -82.265625 7.90625 -79.199219 7.082031 -73.296875 C 6.253906 -67.394531 5.429688 -60.546875 4.722656 -52.757812 C 4.367188 -49.335938 4.132812 -45.914062 3.894531 -42.492188 C 3.660156 -38.949219 3.421875 -35.410156 3.1875 -32.105469 C 2.714844 -25.847656 2.480469 -20.183594 2.359375 -15.226562 L 2.359375 -10.976562 C 2.359375 -8.027344 2.359375 -5.785156 2.597656 -4.367188 C 3.070312 -1.0625 3.539062 1.179688 4.011719 2.242188 C 4.367188 3.421875 5.191406 4.484375 6.492188 5.429688 Z M 6.492188 5.429688 "/></g></g></g><g fill="#dc3c4d" fill-opacity="0.502"><g transform="translate(378.441421, 151.433037)"><g><path d="M 40.246094 -45.558594 C 40.011719 -45.558594 39.777344 -45.675781 39.65625 -45.796875 C 39.421875 -45.796875 39.304688 -45.914062 39.066406 -45.914062 L 38.949219 -45.914062 C 38.359375 -45.914062 37.652344 -45.675781 36.941406 -45.441406 C 36 -45.085938 34.699219 -44.496094 33.167969 -43.671875 C 30.804688 -42.371094 28.800781 -41.546875 27.382812 -41.308594 C 25.964844 -40.957031 23.25 -40.71875 19.476562 -40.71875 C 16.050781 -40.601562 13.457031 -40.484375 11.804688 -40.246094 C 10.03125 -39.894531 8.378906 -39.304688 6.84375 -38.59375 C 3.894531 -37.179688 1.296875 -35.410156 -0.945312 -33.519531 C -3.304688 -31.515625 -4.722656 -29.625 -5.429688 -27.855469 C -6.019531 -26.4375 -6.253906 -25.496094 -6.253906 -25.023438 L -6.253906 -24.902344 C -6.253906 -24.3125 -6.019531 -23.605469 -5.3125 -22.660156 C -3.894531 -20.300781 -0.589844 -19.828125 4.367188 -21.128906 C 9.324219 -22.308594 15.933594 -25.496094 24.3125 -30.6875 C 26.675781 -32.105469 28.800781 -33.402344 30.570312 -34.464844 C 32.339844 -35.527344 33.285156 -36 33.402344 -35.761719 C 33.402344 -35.527344 33.285156 -34.820312 32.8125 -33.875 C 32.339844 -32.695312 31.984375 -31.515625 31.632812 -30.214844 C 30.570312 -26.203125 30.453125 -23.132812 31.394531 -20.773438 C 32.222656 -18.414062 34.109375 -16.640625 36.941406 -15.460938 C 38.59375 -14.636719 40.484375 -14.28125 42.492188 -14.28125 L 42.84375 -14.28125 C 44.851562 -14.28125 48.039062 -14.871094 52.285156 -15.933594 C 56.183594 -16.878906 60.785156 -18.292969 66.214844 -20.417969 C 71.527344 -22.425781 76.363281 -24.550781 80.851562 -26.792969 C 83.210938 -27.972656 85.335938 -29.035156 87.222656 -30.097656 C 88.992188 -31.160156 90.410156 -32.105469 91.355469 -33.046875 C 92.296875 -33.875 93.125 -34.464844 93.597656 -34.9375 C 91.707031 -34.699219 90.410156 -34.464844 89.582031 -34.464844 C 88.402344 -34.226562 85.808594 -33.636719 81.675781 -32.574219 C 77.425781 -31.394531 73.058594 -29.980469 68.457031 -28.445312 C 59.015625 -25.375 51.933594 -23.488281 47.210938 -22.78125 C 42.492188 -21.953125 39.65625 -22.1875 38.714844 -23.488281 C 38.003906 -24.3125 37.886719 -25.613281 38.242188 -27.5 C 38.476562 -29.152344 39.421875 -32.105469 40.957031 -36.351562 C 42.019531 -39.304688 42.492188 -41.429688 42.492188 -42.609375 C 42.253906 -43.789062 41.546875 -44.734375 40.246094 -45.558594 Z M 17.46875 -36.351562 C 17.824219 -36.351562 18.175781 -36.472656 18.648438 -36.472656 C 18.882812 -36.472656 19.238281 -36.589844 19.476562 -36.589844 C 20.300781 -36.589844 20.773438 -36.351562 20.890625 -36.117188 C 20.890625 -35.761719 20.300781 -35.289062 19.121094 -34.582031 C 16.996094 -33.167969 13.457031 -31.394531 8.5 -29.035156 C 4.25 -26.910156 1.417969 -25.847656 0.234375 -25.847656 C 0 -25.847656 -0.117188 -25.847656 -0.117188 -25.964844 C -0.355469 -25.964844 -0.589844 -26.085938 -0.589844 -26.320312 C -0.589844 -26.910156 0.589844 -28.207031 2.949219 -30.332031 C 4.839844 -31.984375 7.082031 -33.285156 9.679688 -34.226562 C 12.273438 -35.171875 14.871094 -35.878906 17.46875 -36.351562 Z M 44.734375 -53.347656 C 45.675781 -52.167969 46.503906 -51.695312 46.976562 -51.695312 C 47.09375 -51.695312 47.210938 -51.695312 47.449219 -51.816406 C 47.917969 -52.167969 48.390625 -53.585938 48.628906 -56.0625 C 48.746094 -56.890625 48.863281 -57.714844 48.863281 -58.542969 C 48.863281 -59.25 48.746094 -60.078125 48.628906 -60.902344 C 48.390625 -62.320312 47.917969 -64.796875 46.976562 -68.339844 C 46.03125 -72.117188 45.324219 -74.476562 45.085938 -75.421875 C 44.613281 -76.246094 44.144531 -76.953125 43.433594 -77.425781 C 42.492188 -78.015625 41.429688 -78.371094 40.367188 -78.371094 L 40.011719 -78.371094 C 38.832031 -78.253906 37.769531 -77.898438 36.824219 -77.191406 C 36.472656 -76.835938 35.644531 -75.65625 34.347656 -73.769531 C 33.046875 -71.878906 31.632812 -69.753906 30.214844 -67.394531 C 28.800781 -65.035156 27.382812 -62.792969 26.085938 -60.667969 C 24.785156 -58.542969 23.960938 -57.125 23.605469 -56.652344 C 22.898438 -55.710938 22.660156 -54.882812 22.660156 -54.292969 L 22.78125 -54.175781 C 22.78125 -53.46875 23.25 -53.230469 24.195312 -53.347656 C 24.433594 -53.347656 25.257812 -54.292969 26.554688 -55.945312 C 27.972656 -57.597656 29.390625 -59.488281 31.042969 -61.730469 C 31.75 -62.910156 32.574219 -64.207031 33.519531 -65.386719 C 34.226562 -66.566406 35.054688 -67.628906 35.761719 -68.8125 C 37.179688 -71.289062 38.242188 -72.46875 38.832031 -72.351562 C 39.304688 -72.351562 39.777344 -70.933594 40.246094 -68.101562 C 40.71875 -64.207031 41.429688 -61.140625 42.136719 -58.777344 C 42.84375 -56.183594 43.789062 -54.410156 44.734375 -53.347656 Z M 44.734375 -53.347656 "/></g></g></g><g fill="#dc3c4d" fill-opacity="0.502"><g transform="translate(467.905724, 151.433037)"><g><path d="M -2.714844 -16.878906 C -2.125 -16.171875 -1.296875 -15.933594 -0.355469 -15.933594 C 0.355469 -15.933594 1.179688 -16.171875 2.125 -16.640625 C 4.132812 -17.585938 6.609375 -19.828125 9.679688 -23.132812 C 16.878906 -30.921875 22.425781 -36.707031 26.4375 -40.71875 C 30.453125 -44.613281 32.574219 -46.386719 32.929688 -46.148438 C 33.167969 -45.914062 33.167969 -44.96875 32.929688 -43.316406 C 32.695312 -41.664062 32.339844 -39.65625 31.867188 -37.53125 C 30.570312 -31.867188 29.980469 -27.855469 30.214844 -25.257812 C 30.214844 -22.660156 31.160156 -20.535156 32.8125 -18.882812 C 34.699219 -16.878906 37.652344 -16.289062 41.429688 -16.996094 C 45.085938 -17.703125 49.808594 -19.476562 55.710938 -22.308594 C 61.847656 -25.375 67.511719 -28.089844 72.46875 -30.570312 C 77.425781 -32.929688 80.378906 -34.582031 81.203125 -35.289062 C 78.84375 -35.410156 76.363281 -35.171875 73.769531 -34.582031 C 71.054688 -33.875 68.339844 -33.046875 65.507812 -32.105469 C 60.3125 -30.214844 55.238281 -28.089844 50.28125 -25.964844 C 45.324219 -23.84375 41.429688 -22.898438 38.59375 -23.25 C 37.414062 -23.605469 36.824219 -25.023438 36.824219 -27.617188 C 36.824219 -29.980469 37.296875 -33.285156 38.476562 -37.414062 C 38.949219 -39.066406 39.304688 -41.074219 39.65625 -43.199219 C 39.894531 -45.324219 40.128906 -46.976562 40.128906 -48.390625 C 40.128906 -50.28125 39.894531 -51.695312 39.65625 -52.523438 C 39.304688 -53.230469 38.59375 -53.820312 37.414062 -54.410156 C 36.824219 -54.648438 36.234375 -54.765625 35.527344 -54.765625 C 33.875 -54.765625 31.984375 -53.9375 29.980469 -52.523438 C 26.910156 -50.28125 21.835938 -45.441406 14.871094 -38.125 C 9.558594 -32.574219 5.546875 -28.445312 2.949219 -25.613281 C 3.304688 -28.5625 3.539062 -30.804688 3.777344 -32.339844 C 4.367188 -38.003906 4.722656 -41.429688 4.722656 -42.726562 C 4.601562 -44.023438 4.132812 -44.734375 3.304688 -44.734375 C 2.597656 -44.734375 1.769531 -43.550781 0.945312 -41.429688 C 0 -39.1875 -0.707031 -36.589844 -1.417969 -33.757812 C -2.359375 -30.097656 -2.949219 -26.554688 -3.1875 -23.132812 C -3.421875 -21.953125 -3.421875 -20.890625 -3.421875 -20.066406 C -3.421875 -18.414062 -3.1875 -17.351562 -2.714844 -16.878906 Z M -2.714844 -16.878906 "/></g></g></g><g fill="#f6e7d8" fill-opacity="1"><g transform="translate(126.642155, 149.236451)"><g><path d="M 6.019531 20.890625 C 6.253906 21.363281 6.609375 21.71875 6.964844 21.835938 C 6.964844 21.835938 7.082031 21.953125 7.082031 21.953125 C 7.316406 21.953125 7.554688 21.835938 7.789062 21.597656 C 8.027344 21.363281 8.734375 19.355469 10.03125 15.699219 C 11.332031 12.039062 12.746094 7.789062 14.398438 2.949219 C 15.933594 -1.886719 17.824219 -7.554688 20.066406 -13.925781 C 22.308594 -20.183594 24.195312 -25.375 25.730469 -29.625 C 26.554688 -31.867188 27.265625 -33.875 27.972656 -35.527344 C 28.5625 -37.179688 29.152344 -38.59375 29.742188 -39.777344 C 30.6875 -41.898438 31.867188 -43.433594 33.167969 -44.261719 C 34.347656 -45.085938 36.351562 -45.675781 39.066406 -45.914062 C 40.484375 -46.03125 42.136719 -46.148438 44.023438 -46.148438 C 45.914062 -46.148438 48.039062 -46.265625 50.515625 -46.386719 C 54.765625 -46.621094 57.835938 -46.621094 59.722656 -46.503906 C 61.609375 -46.265625 62.554688 -46.03125 62.554688 -45.558594 C 62.554688 -45.203125 62.320312 -44.023438 61.730469 -41.898438 C 61.019531 -39.777344 60.3125 -37.414062 59.488281 -34.9375 C 58.425781 -31.984375 57.480469 -29.035156 56.652344 -26.085938 C 55.710938 -23.132812 55 -20.300781 54.410156 -17.585938 C 53.230469 -12.394531 52.523438 -8.261719 52.285156 -4.957031 C 51.933594 -1.535156 52.285156 -0.234375 53.347656 -1.0625 C 53.820312 -1.417969 54.53125 -2.597656 55.710938 -4.601562 C 56.773438 -6.492188 58.070312 -9.089844 59.722656 -12.394531 C 62.554688 -18.292969 65.976562 -26.085938 69.992188 -35.527344 C 74.003906 -44.96875 78.136719 -55 82.382812 -65.625 C 84.390625 -70.816406 86.515625 -76.011719 88.757812 -81.441406 C 90.882812 -86.75 92.535156 -90.644531 93.597656 -93.125 C 95.722656 -97.847656 96.785156 -101.269531 96.785156 -103.394531 C 96.785156 -105.28125 95.601562 -106.34375 93.480469 -106.34375 C 92.296875 -106.34375 91.117188 -105.519531 90.175781 -104.101562 C 89.113281 -102.566406 87.105469 -98.789062 84.15625 -92.652344 C 82.265625 -88.875 80.140625 -84.273438 77.78125 -79.078125 C 75.300781 -73.769531 73.296875 -69.28125 71.644531 -65.742188 C 69.046875 -59.839844 67.039062 -55.355469 65.859375 -52.523438 C 63.855469 -52.523438 62.4375 -52.640625 61.492188 -52.757812 C 60.195312 -52.757812 58.660156 -52.875 56.773438 -53.113281 C 54.882812 -53.113281 53.113281 -53.230469 51.695312 -53.46875 C 50.164062 -53.46875 48.390625 -53.585938 46.503906 -53.585938 C 44.378906 -53.585938 42.726562 -53.46875 41.308594 -53.347656 C 39.304688 -53.113281 38.003906 -53.113281 37.296875 -53.347656 C 36.589844 -53.585938 36.234375 -53.9375 36.234375 -54.648438 C 36.117188 -55 36.234375 -55.710938 36.589844 -56.773438 C 36.941406 -57.714844 37.414062 -59.015625 38.003906 -60.546875 C 39.066406 -63.382812 40.484375 -66.6875 42.253906 -70.464844 C 44.023438 -74.238281 45.796875 -77.664062 47.566406 -80.96875 C 49.21875 -84.15625 50.164062 -86.515625 50.28125 -88.167969 C 50.28125 -89.703125 49.570312 -90.410156 48.15625 -90.292969 C 47.566406 -90.175781 46.265625 -88.523438 44.144531 -85.453125 C 41.898438 -82.382812 39.539062 -78.605469 36.941406 -74.359375 C 35.527344 -71.996094 34.109375 -69.519531 32.695312 -67.039062 C 31.277344 -64.5625 29.980469 -62.203125 28.800781 -59.839844 C 27.5 -57.480469 26.203125 -55.472656 25.023438 -53.820312 C 23.84375 -52.167969 22.898438 -51.222656 22.308594 -50.988281 C 21.597656 -50.753906 20.300781 -50.398438 18.414062 -49.808594 C 16.289062 -49.101562 14.164062 -48.511719 11.921875 -47.800781 C 7.671875 -46.503906 4.839844 -45.324219 3.1875 -44.261719 C 2.007812 -43.433594 1.535156 -42.726562 1.535156 -42.019531 C 1.535156 -41.546875 1.769531 -41.191406 2.007812 -40.957031 C 2.242188 -40.484375 3.1875 -40.246094 4.601562 -40.367188 C 5.902344 -40.367188 8.027344 -40.71875 11.09375 -41.308594 C 13.335938 -41.664062 15.226562 -42.019531 16.878906 -42.253906 C 18.53125 -42.492188 19.355469 -42.492188 19.355469 -42.371094 C 19.355469 -42.253906 18.765625 -40.839844 17.824219 -38.125 C 16.761719 -35.289062 15.578125 -31.984375 14.164062 -28.207031 C 12.628906 -24.433594 11.210938 -20.417969 9.796875 -15.933594 C 8.378906 -11.332031 7.316406 -7.789062 6.726562 -5.3125 C 6.019531 -2.242188 5.546875 1.0625 5.3125 4.601562 C 4.957031 8.144531 4.839844 11.332031 5.074219 14.164062 C 5.074219 15.816406 5.074219 17.113281 5.3125 18.292969 C 5.429688 19.476562 5.664062 20.300781 6.019531 20.890625 Z M 6.019531 20.890625 "/></g></g></g><g fill="#f6e7d8" fill-opacity="1"><g transform="translate(201.589148, 149.236451)"><g><path d="M 40.246094 -45.558594 C 40.011719 -45.558594 39.777344 -45.675781 39.65625 -45.796875 C 39.421875 -45.796875 39.304688 -45.914062 39.066406 -45.914062 L 38.949219 -45.914062 C 38.359375 -45.914062 37.652344 -45.675781 36.941406 -45.441406 C 36 -45.085938 34.699219 -44.496094 33.167969 -43.671875 C 30.804688 -42.371094 28.800781 -41.546875 27.382812 -41.308594 C 25.964844 -40.957031 23.25 -40.71875 19.476562 -40.71875 C 16.050781 -40.601562 13.457031 -40.484375 11.804688 -40.246094 C 10.03125 -39.894531 8.378906 -39.304688 6.84375 -38.59375 C 3.894531 -37.179688 1.296875 -35.410156 -0.945312 -33.519531 C -3.304688 -31.515625 -4.722656 -29.625 -5.429688 -27.855469 C -6.019531 -26.4375 -6.253906 -25.496094 -6.253906 -25.023438 L -6.253906 -24.902344 C -6.253906 -24.3125 -6.019531 -23.605469 -5.3125 -22.660156 C -3.894531 -20.300781 -0.589844 -19.828125 4.367188 -21.128906 C 9.324219 -22.308594 15.933594 -25.496094 24.3125 -30.6875 C 26.675781 -32.105469 28.800781 -33.402344 30.570312 -34.464844 C 32.339844 -35.527344 33.285156 -36 33.402344 -35.761719 C 33.402344 -35.527344 33.285156 -34.820312 32.8125 -33.875 C 32.339844 -32.695312 31.984375 -31.515625 31.632812 -30.214844 C 30.570312 -26.203125 30.453125 -23.132812 31.394531 -20.773438 C 32.222656 -18.414062 34.109375 -16.640625 36.941406 -15.460938 C 38.59375 -14.636719 40.484375 -14.28125 42.492188 -14.28125 L 42.84375 -14.28125 C 44.851562 -14.28125 48.039062 -14.871094 52.285156 -15.933594 C 56.183594 -16.878906 60.785156 -18.292969 66.214844 -20.417969 C 71.527344 -22.425781 76.363281 -24.550781 80.851562 -26.792969 C 83.210938 -27.972656 85.335938 -29.035156 87.222656 -30.097656 C 88.992188 -31.160156 90.410156 -32.105469 91.355469 -33.046875 C 92.296875 -33.875 93.125 -34.464844 93.597656 -34.9375 C 91.707031 -34.699219 90.410156 -34.464844 89.582031 -34.464844 C 88.402344 -34.226562 85.808594 -33.636719 81.675781 -32.574219 C 77.425781 -31.394531 73.058594 -29.980469 68.457031 -28.445312 C 59.015625 -25.375 51.933594 -23.488281 47.210938 -22.78125 C 42.492188 -21.953125 39.65625 -22.1875 38.714844 -23.488281 C 38.003906 -24.3125 37.886719 -25.613281 38.242188 -27.5 C 38.476562 -29.152344 39.421875 -32.105469 40.957031 -36.351562 C 42.019531 -39.304688 42.492188 -41.429688 42.492188 -42.609375 C 42.253906 -43.789062 41.546875 -44.734375 40.246094 -45.558594 Z M 17.46875 -36.351562 C 17.824219 -36.351562 18.175781 -36.472656 18.648438 -36.472656 C 18.882812 -36.472656 19.238281 -36.589844 19.476562 -36.589844 C 20.300781 -36.589844 20.773438 -36.351562 20.890625 -36.117188 C 20.890625 -35.761719 20.300781 -35.289062 19.121094 -34.582031 C 16.996094 -33.167969 13.457031 -31.394531 8.5 -29.035156 C 4.25 -26.910156 1.417969 -25.847656 0.234375 -25.847656 C 0 -25.847656 -0.117188 -25.847656 -0.117188 -25.964844 C -0.355469 -25.964844 -0.589844 -26.085938 -0.589844 -26.320312 C -0.589844 -26.910156 0.589844 -28.207031 2.949219 -30.332031 C 4.839844 -31.984375 7.082031 -33.285156 9.679688 -34.226562 C 12.273438 -35.171875 14.871094 -35.878906 17.46875 -36.351562 Z M 51.933594 -43.90625 C 52.285156 -44.023438 52.523438 -44.496094 52.523438 -45.324219 C 52.285156 -45.796875 52.167969 -46.148438 52.167969 -46.503906 C 51.933594 -47.210938 51.578125 -48.15625 50.988281 -49.453125 C 50.398438 -50.632812 49.691406 -52.167969 48.863281 -54.058594 L 46.265625 -59.488281 C 45.796875 -60.195312 45.441406 -60.785156 45.203125 -61.375 C 44.96875 -61.964844 44.734375 -62.554688 44.613281 -63.144531 C 44.144531 -63.855469 43.90625 -64.679688 43.789062 -65.507812 C 43.550781 -65.742188 43.433594 -65.976562 43.199219 -66.214844 C 42.960938 -66.449219 42.84375 -66.804688 42.726562 -67.039062 C 42.253906 -67.394531 41.898438 -67.867188 41.429688 -68.457031 C 40.957031 -68.929688 40.367188 -69.28125 39.777344 -69.28125 C 39.304688 -69.164062 38.949219 -69.046875 38.714844 -68.8125 C 38.476562 -68.574219 38.242188 -68.339844 38.003906 -68.101562 C 37.414062 -67.394531 37.0625 -66.6875 36.824219 -65.859375 C 37.0625 -62.910156 38.125 -59.722656 39.894531 -56.417969 C 41.546875 -53.113281 43.789062 -49.925781 46.621094 -47.09375 C 47.328125 -46.265625 48.039062 -45.675781 48.628906 -45.203125 C 49.21875 -44.734375 49.691406 -44.378906 50.042969 -44.144531 C 50.515625 -43.671875 50.871094 -43.550781 51.34375 -43.789062 C 51.460938 -43.789062 51.578125 -43.789062 51.578125 -43.789062 C 51.578125 -43.789062 51.695312 -43.90625 51.933594 -43.90625 Z M 51.933594 -43.90625 "/></g></g></g><g fill="#f6e7d8" fill-opacity="1"><g transform="translate(291.053434, 149.236451)"><g/></g></g><g fill="#f6e7d8" fill-opacity="1"><g transform="translate(323.628821, 149.236451)"><g><path d="M 6.492188 5.429688 C 7.4375 6.253906 8.5 6.726562 9.558594 6.964844 C 10.152344 7.199219 10.859375 7.199219 11.566406 7.199219 C 12.039062 7.199219 12.511719 7.199219 12.984375 7.082031 C 14.515625 6.84375 16.171875 5.902344 18.058594 4.25 C 19.710938 2.597656 21.953125 -0.472656 24.785156 -4.839844 C 26.203125 -7.082031 27.855469 -9.796875 29.742188 -13.101562 C 31.515625 -16.171875 33.636719 -19.945312 36 -24.195312 C 38.125 -28.207031 40.246094 -32.105469 42.371094 -35.644531 C 44.261719 -39.066406 46.265625 -42.492188 48.273438 -45.796875 C 51.816406 -51.933594 55.589844 -58.1875 59.605469 -64.324219 C 63.5 -70.464844 68.101562 -77.664062 73.53125 -85.808594 C 76.601562 -90.527344 79.433594 -94.777344 81.792969 -98.554688 C 84.15625 -102.332031 85.453125 -104.457031 85.6875 -105.046875 C 85.808594 -105.519531 85.925781 -105.871094 85.925781 -106.109375 C 85.925781 -106.578125 85.6875 -106.933594 85.21875 -106.933594 C 84.863281 -106.933594 84.507812 -106.816406 84.035156 -106.578125 C 82.382812 -105.871094 80.023438 -104.457031 77.191406 -102.214844 C 75.539062 -100.914062 73.886719 -99.5 72.117188 -97.847656 C 70.226562 -96.074219 68.457031 -94.1875 66.566406 -92.296875 C 60.546875 -86.160156 53.9375 -77.546875 46.621094 -66.332031 C 39.1875 -55 31.160156 -41.429688 22.660156 -25.375 C 19.476562 -19.59375 17.230469 -15.699219 15.933594 -13.691406 C 14.515625 -11.683594 13.457031 -10.859375 12.863281 -11.332031 C 12.746094 -11.332031 12.628906 -13.691406 12.628906 -18.175781 C 12.628906 -22.660156 12.511719 -27.617188 12.511719 -33.046875 C 12.394531 -36.589844 12.394531 -40.128906 12.394531 -43.433594 C 12.273438 -46.738281 12.15625 -49.335938 12.15625 -51.460938 C 11.921875 -56.183594 11.804688 -60.195312 11.683594 -63.734375 C 11.566406 -67.039062 11.449219 -69.992188 11.332031 -72.351562 C 11.09375 -77.78125 10.859375 -80.851562 10.621094 -81.792969 C 10.386719 -82.621094 9.914062 -82.972656 9.441406 -82.738281 C 8.734375 -82.265625 7.90625 -79.199219 7.082031 -73.296875 C 6.253906 -67.394531 5.429688 -60.546875 4.722656 -52.757812 C 4.367188 -49.335938 4.132812 -45.914062 3.894531 -42.492188 C 3.660156 -38.949219 3.421875 -35.410156 3.1875 -32.105469 C 2.714844 -25.847656 2.480469 -20.183594 2.359375 -15.226562 L 2.359375 -10.976562 C 2.359375 -8.027344 2.359375 -5.785156 2.597656 -4.367188 C 3.070312 -1.0625 3.539062 1.179688 4.011719 2.242188 C 4.367188 3.421875 5.191406 4.484375 6.492188 5.429688 Z M 6.492188 5.429688 "/></g></g></g><g fill="#f6e7d8" fill-opacity="1"><g transform="translate(381.697988, 149.236451)"><g><path d="M 40.246094 -45.558594 C 40.011719 -45.558594 39.777344 -45.675781 39.65625 -45.796875 C 39.421875 -45.796875 39.304688 -45.914062 39.066406 -45.914062 L 38.949219 -45.914062 C 38.359375 -45.914062 37.652344 -45.675781 36.941406 -45.441406 C 36 -45.085938 34.699219 -44.496094 33.167969 -43.671875 C 30.804688 -42.371094 28.800781 -41.546875 27.382812 -41.308594 C 25.964844 -40.957031 23.25 -40.71875 19.476562 -40.71875 C 16.050781 -40.601562 13.457031 -40.484375 11.804688 -40.246094 C 10.03125 -39.894531 8.378906 -39.304688 6.84375 -38.59375 C 3.894531 -37.179688 1.296875 -35.410156 -0.945312 -33.519531 C -3.304688 -31.515625 -4.722656 -29.625 -5.429688 -27.855469 C -6.019531 -26.4375 -6.253906 -25.496094 -6.253906 -25.023438 L -6.253906 -24.902344 C -6.253906 -24.3125 -6.019531 -23.605469 -5.3125 -22.660156 C -3.894531 -20.300781 -0.589844 -19.828125 4.367188 -21.128906 C 9.324219 -22.308594 15.933594 -25.496094 24.3125 -30.6875 C 26.675781 -32.105469 28.800781 -33.402344 30.570312 -34.464844 C 32.339844 -35.527344 33.285156 -36 33.402344 -35.761719 C 33.402344 -35.527344 33.285156 -34.820312 32.8125 -33.875 C 32.339844 -32.695312 31.984375 -31.515625 31.632812 -30.214844 C 30.570312 -26.203125 30.453125 -23.132812 31.394531 -20.773438 C 32.222656 -18.414062 34.109375 -16.640625 36.941406 -15.460938 C 38.59375 -14.636719 40.484375 -14.28125 42.492188 -14.28125 L 42.84375 -14.28125 C 44.851562 -14.28125 48.039062 -14.871094 52.285156 -15.933594 C 56.183594 -16.878906 60.785156 -18.292969 66.214844 -20.417969 C 71.527344 -22.425781 76.363281 -24.550781 80.851562 -26.792969 C 83.210938 -27.972656 85.335938 -29.035156 87.222656 -30.097656 C 88.992188 -31.160156 90.410156 -32.105469 91.355469 -33.046875 C 92.296875 -33.875 93.125 -34.464844 93.597656 -34.9375 C 91.707031 -34.699219 90.410156 -34.464844 89.582031 -34.464844 C 88.402344 -34.226562 85.808594 -33.636719 81.675781 -32.574219 C 77.425781 -31.394531 73.058594 -29.980469 68.457031 -28.445312 C 59.015625 -25.375 51.933594 -23.488281 47.210938 -22.78125 C 42.492188 -21.953125 39.65625 -22.1875 38.714844 -23.488281 C 38.003906 -24.3125 37.886719 -25.613281 38.242188 -27.5 C 38.476562 -29.152344 39.421875 -32.105469 40.957031 -36.351562 C 42.019531 -39.304688 42.492188 -41.429688 42.492188 -42.609375 C 42.253906 -43.789062 41.546875 -44.734375 40.246094 -45.558594 Z M 17.46875 -36.351562 C 17.824219 -36.351562 18.175781 -36.472656 18.648438 -36.472656 C 18.882812 -36.472656 19.238281 -36.589844 19.476562 -36.589844 C 20.300781 -36.589844 20.773438 -36.351562 20.890625 -36.117188 C 20.890625 -35.761719 20.300781 -35.289062 19.121094 -34.582031 C 16.996094 -33.167969 13.457031 -31.394531 8.5 -29.035156 C 4.25 -26.910156 1.417969 -25.847656 0.234375 -25.847656 C 0 -25.847656 -0.117188 -25.847656 -0.117188 -25.964844 C -0.355469 -25.964844 -0.589844 -26.085938 -0.589844 -26.320312 C -0.589844 -26.910156 0.589844 -28.207031 2.949219 -30.332031 C 4.839844 -31.984375 7.082031 -33.285156 9.679688 -34.226562 C 12.273438 -35.171875 14.871094 -35.878906 17.46875 -36.351562 Z M 44.734375 -53.347656 C 45.675781 -52.167969 46.503906 -51.695312 46.976562 -51.695312 C 47.09375 -51.695312 47.210938 -51.695312 47.449219 -51.816406 C 47.917969 -52.167969 48.390625 -53.585938 48.628906 -56.0625 C 48.746094 -56.890625 48.863281 -57.714844 48.863281 -58.542969 C 48.863281 -59.25 48.746094 -60.078125 48.628906 -60.902344 C 48.390625 -62.320312 47.917969 -64.796875 46.976562 -68.339844 C 46.03125 -72.117188 45.324219 -74.476562 45.085938 -75.421875 C 44.613281 -76.246094 44.144531 -76.953125 43.433594 -77.425781 C 42.492188 -78.015625 41.429688 -78.371094 40.367188 -78.371094 L 40.011719 -78.371094 C 38.832031 -78.253906 37.769531 -77.898438 36.824219 -77.191406 C 36.472656 -76.835938 35.644531 -75.65625 34.347656 -73.769531 C 33.046875 -71.878906 31.632812 -69.753906 30.214844 -67.394531 C 28.800781 -65.035156 27.382812 -62.792969 26.085938 -60.667969 C 24.785156 -58.542969 23.960938 -57.125 23.605469 -56.652344 C 22.898438 -55.710938 22.660156 -54.882812 22.660156 -54.292969 L 22.78125 -54.175781 C 22.78125 -53.46875 23.25 -53.230469 24.195312 -53.347656 C 24.433594 -53.347656 25.257812 -54.292969 26.554688 -55.945312 C 27.972656 -57.597656 29.390625 -59.488281 31.042969 -61.730469 C 31.75 -62.910156 32.574219 -64.207031 33.519531 -65.386719 C 34.226562 -66.566406 35.054688 -67.628906 35.761719 -68.8125 C 37.179688 -71.289062 38.242188 -72.46875 38.832031 -72.351562 C 39.304688 -72.351562 39.777344 -70.933594 40.246094 -68.101562 C 40.71875 -64.207031 41.429688 -61.140625 42.136719 -58.777344 C 42.84375 -56.183594 43.789062 -54.410156 44.734375 -53.347656 Z M 44.734375 -53.347656 "/></g></g></g><g fill="#f6e7d8" fill-opacity="1"><g transform="translate(471.162291, 149.236451)"><g><path d="M -2.714844 -16.878906 C -2.125 -16.171875 -1.296875 -15.933594 -0.355469 -15.933594 C 0.355469 -15.933594 1.179688 -16.171875 2.125 -16.640625 C 4.132812 -17.585938 6.609375 -19.828125 9.679688 -23.132812 C 16.878906 -30.921875 22.425781 -36.707031 26.4375 -40.71875 C 30.453125 -44.613281 32.574219 -46.386719 32.929688 -46.148438 C 33.167969 -45.914062 33.167969 -44.96875 32.929688 -43.316406 C 32.695312 -41.664062 32.339844 -39.65625 31.867188 -37.53125 C 30.570312 -31.867188 29.980469 -27.855469 30.214844 -25.257812 C 30.214844 -22.660156 31.160156 -20.535156 32.8125 -18.882812 C 34.699219 -16.878906 37.652344 -16.289062 41.429688 -16.996094 C 45.085938 -17.703125 49.808594 -19.476562 55.710938 -22.308594 C 61.847656 -25.375 67.511719 -28.089844 72.46875 -30.570312 C 77.425781 -32.929688 80.378906 -34.582031 81.203125 -35.289062 C 78.84375 -35.410156 76.363281 -35.171875 73.769531 -34.582031 C 71.054688 -33.875 68.339844 -33.046875 65.507812 -32.105469 C 60.3125 -30.214844 55.238281 -28.089844 50.28125 -25.964844 C 45.324219 -23.84375 41.429688 -22.898438 38.59375 -23.25 C 37.414062 -23.605469 36.824219 -25.023438 36.824219 -27.617188 C 36.824219 -29.980469 37.296875 -33.285156 38.476562 -37.414062 C 38.949219 -39.066406 39.304688 -41.074219 39.65625 -43.199219 C 39.894531 -45.324219 40.128906 -46.976562 40.128906 -48.390625 C 40.128906 -50.28125 39.894531 -51.695312 39.65625 -52.523438 C 39.304688 -53.230469 38.59375 -53.820312 37.414062 -54.410156 C 36.824219 -54.648438 36.234375 -54.765625 35.527344 -54.765625 C 33.875 -54.765625 31.984375 -53.9375 29.980469 -52.523438 C 26.910156 -50.28125 21.835938 -45.441406 14.871094 -38.125 C 9.558594 -32.574219 5.546875 -28.445312 2.949219 -25.613281 C 3.304688 -28.5625 3.539062 -30.804688 3.777344 -32.339844 C 4.367188 -38.003906 4.722656 -41.429688 4.722656 -42.726562 C 4.601562 -44.023438 4.132812 -44.734375 3.304688 -44.734375 C 2.597656 -44.734375 1.769531 -43.550781 0.945312 -41.429688 C 0 -39.1875 -0.707031 -36.589844 -1.417969 -33.757812 C -2.359375 -30.097656 -2.949219 -26.554688 -3.1875 -23.132812 C -3.421875 -21.953125 -3.421875 -20.890625 -3.421875 -20.066406 C -3.421875 -18.414062 -3.1875 -17.351562 -2.714844 -16.878906 Z M -2.714844 -16.878906 "/></g></g></g></svg>