<svg xmlns="http://www.w3.org/2000/svg" xmlns:xlink="http://www.w3.org/1999/xlink" width="500" zoomAndPan="magnify" viewBox="0 0 375 374.999991" height="500" preserveAspectRatio="xMidYMid meet" version="1.0"><defs><clipPath id="a1c4c406ca"><path d="M 8.183594 0 L 366.683594 0 L 366.683594 375 L 8.183594 375 Z M 8.183594 0 " clip-rule="nonzero"/></clipPath><clipPath id="7032b916ff"><path d="M 87.828125 27.386719 L 287 27.386719 L 287 347.636719 L 87.828125 347.636719 Z M 87.828125 27.386719 " clip-rule="nonzero"/></clipPath></defs><g clip-path="url(#a1c4c406ca)"><path fill="#000000" d="M 321.574219 0.871094 L 53.289062 0.871094 C 51.816406 0.875 50.34375 0.949219 48.875 1.09375 C 47.40625 1.242188 45.949219 1.457031 44.503906 1.746094 C 43.058594 2.035156 41.628906 2.394531 40.21875 2.824219 C 38.804688 3.253906 37.417969 3.753906 36.058594 4.316406 C 34.695312 4.882812 33.363281 5.515625 32.0625 6.210938 C 30.761719 6.90625 29.5 7.664062 28.273438 8.484375 C 27.046875 9.304688 25.863281 10.183594 24.722656 11.121094 C 23.582031 12.054688 22.492188 13.046875 21.449219 14.089844 C 20.40625 15.132812 19.414062 16.222656 18.480469 17.363281 C 17.542969 18.503906 16.664062 19.6875 15.84375 20.914062 C 15.027344 22.140625 14.269531 23.40625 13.570312 24.707031 C 12.875 26.007812 12.246094 27.339844 11.679688 28.703125 C 11.113281 30.066406 10.617188 31.453125 10.1875 32.867188 C 9.757812 34.277344 9.398438 35.707031 9.109375 37.152344 C 8.820312 38.601562 8.605469 40.058594 8.457031 41.527344 C 8.3125 42.996094 8.238281 44.46875 8.234375 45.941406 L 8.234375 329.703125 C 8.238281 331.175781 8.3125 332.648438 8.457031 334.117188 C 8.605469 335.585938 8.820312 337.042969 9.109375 338.488281 C 9.398438 339.9375 9.757812 341.367188 10.1875 342.777344 C 10.617188 344.1875 11.113281 345.578125 11.679688 346.941406 C 12.246094 348.300781 12.875 349.632812 13.570312 350.933594 C 14.269531 352.234375 15.027344 353.5 15.847656 354.726562 C 16.664062 355.953125 17.542969 357.136719 18.480469 358.277344 C 19.414062 359.417969 20.40625 360.507812 21.449219 361.550781 C 22.492188 362.59375 23.582031 363.585938 24.722656 364.519531 C 25.863281 365.457031 27.046875 366.335938 28.273438 367.15625 C 29.5 367.976562 30.761719 368.734375 32.0625 369.429688 C 33.363281 370.125 34.695312 370.757812 36.058594 371.320312 C 37.421875 371.886719 38.808594 372.382812 40.21875 372.8125 C 41.628906 373.242188 43.058594 373.601562 44.503906 373.890625 C 45.949219 374.179688 47.40625 374.398438 48.875 374.542969 C 50.34375 374.6875 51.816406 374.761719 53.289062 374.765625 L 321.574219 374.765625 C 323.046875 374.761719 324.519531 374.6875 325.988281 374.542969 C 327.457031 374.398438 328.914062 374.179688 330.359375 373.890625 C 331.804688 373.601562 333.234375 373.242188 334.644531 372.8125 C 336.058594 372.382812 337.445312 371.886719 338.804688 371.320312 C 340.167969 370.757812 341.5 370.125 342.800781 369.429688 C 344.101562 368.734375 345.363281 367.976562 346.589844 367.15625 C 347.816406 366.335938 349 365.457031 350.140625 364.519531 C 351.28125 363.585938 352.371094 362.59375 353.414062 361.550781 C 354.457031 360.507812 355.449219 359.417969 356.382812 358.277344 C 357.320312 357.136719 358.199219 355.953125 359.015625 354.726562 C 359.835938 353.5 360.59375 352.234375 361.292969 350.933594 C 361.988281 349.632812 362.617188 348.300781 363.183594 346.941406 C 363.75 345.578125 364.246094 344.1875 364.675781 342.777344 C 365.105469 341.367188 365.464844 339.9375 365.753906 338.488281 C 366.042969 337.042969 366.257812 335.585938 366.40625 334.117188 C 366.550781 332.648438 366.625 331.175781 366.628906 329.703125 L 366.628906 45.941406 C 366.625 44.46875 366.550781 42.996094 366.40625 41.527344 C 366.257812 40.058594 366.042969 38.601562 365.753906 37.152344 C 365.464844 35.707031 365.105469 34.277344 364.675781 32.867188 C 364.246094 31.453125 363.75 30.066406 363.183594 28.703125 C 362.617188 27.339844 361.988281 26.007812 361.292969 24.707031 C 360.597656 23.40625 359.839844 22.140625 359.019531 20.914062 C 358.199219 19.6875 357.320312 18.503906 356.382812 17.363281 C 355.449219 16.222656 354.460938 15.132812 353.417969 14.089844 C 352.371094 13.046875 351.28125 12.054688 350.140625 11.121094 C 349 10.183594 347.816406 9.304688 346.589844 8.484375 C 345.367188 7.664062 344.101562 6.90625 342.800781 6.210938 C 341.5 5.515625 340.167969 4.882812 338.808594 4.316406 C 337.445312 3.753906 336.058594 3.253906 334.644531 2.824219 C 333.234375 2.394531 331.804688 2.035156 330.359375 1.746094 C 328.914062 1.457031 327.457031 1.242188 325.988281 1.09375 C 324.519531 0.949219 323.046875 0.875 321.574219 0.871094 Z M 350.695312 329.703125 C 350.691406 330.65625 350.644531 331.605469 350.550781 332.554688 C 350.457031 333.503906 350.316406 334.445312 350.128906 335.382812 C 349.941406 336.316406 349.707031 337.242188 349.429688 338.152344 C 349.152344 339.066406 348.832031 339.960938 348.46875 340.84375 C 348.101562 341.722656 347.695312 342.582031 347.242188 343.425781 C 346.792969 344.265625 346.304688 345.082031 345.773438 345.875 C 345.246094 346.667969 344.675781 347.433594 344.070312 348.167969 C 343.46875 348.90625 342.828125 349.613281 342.152344 350.285156 C 341.480469 350.960938 340.773438 351.601562 340.035156 352.207031 C 339.300781 352.808594 338.535156 353.378906 337.742188 353.90625 C 336.949219 354.4375 336.132812 354.925781 335.292969 355.378906 C 334.453125 355.828125 333.589844 356.234375 332.710938 356.601562 C 331.832031 356.964844 330.933594 357.285156 330.023438 357.5625 C 329.109375 357.839844 328.1875 358.074219 327.25 358.261719 C 326.316406 358.445312 325.375 358.585938 324.425781 358.683594 C 323.476562 358.777344 322.527344 358.824219 321.574219 358.824219 L 53.289062 358.824219 C 52.335938 358.824219 51.386719 358.777344 50.4375 358.679688 C 49.488281 358.585938 48.546875 358.445312 47.613281 358.261719 C 46.675781 358.074219 45.753906 357.839844 44.839844 357.5625 C 43.929688 357.285156 43.03125 356.964844 42.152344 356.601562 C 41.273438 356.234375 40.410156 355.828125 39.570312 355.378906 C 38.730469 354.925781 37.914062 354.4375 37.121094 353.90625 C 36.328125 353.378906 35.5625 352.808594 34.828125 352.207031 C 34.089844 351.601562 33.382812 350.960938 32.710938 350.285156 C 32.035156 349.613281 31.398438 348.90625 30.792969 348.167969 C 30.1875 347.433594 29.621094 346.667969 29.089844 345.875 C 28.558594 345.082031 28.070312 344.265625 27.621094 343.425781 C 27.167969 342.582031 26.761719 341.722656 26.398438 340.84375 C 26.03125 339.960938 25.710938 339.066406 25.433594 338.152344 C 25.15625 337.242188 24.921875 336.316406 24.734375 335.382812 C 24.546875 334.445312 24.40625 333.503906 24.3125 332.554688 C 24.21875 331.605469 24.171875 330.65625 24.167969 329.703125 L 24.167969 45.941406 C 24.171875 44.988281 24.21875 44.039062 24.3125 43.089844 C 24.40625 42.140625 24.546875 41.195312 24.734375 40.261719 C 24.921875 39.328125 25.152344 38.402344 25.429688 37.488281 C 25.707031 36.578125 26.03125 35.679688 26.394531 34.800781 C 26.761719 33.917969 27.167969 33.058594 27.617188 32.21875 C 28.066406 31.375 28.558594 30.558594 29.085938 29.765625 C 29.617188 28.972656 30.183594 28.207031 30.789062 27.472656 C 31.394531 26.734375 32.035156 26.027344 32.707031 25.351562 C 33.382812 24.679688 34.085938 24.039062 34.824219 23.433594 C 35.5625 22.828125 36.328125 22.261719 37.117188 21.730469 C 37.910156 21.199219 38.726562 20.710938 39.570312 20.261719 C 40.410156 19.8125 41.269531 19.402344 42.152344 19.039062 C 43.03125 18.671875 43.929688 18.351562 44.839844 18.074219 C 45.753906 17.796875 46.675781 17.5625 47.609375 17.375 C 48.546875 17.191406 49.488281 17.050781 50.4375 16.957031 C 51.386719 16.859375 52.335938 16.8125 53.289062 16.8125 L 321.574219 16.8125 C 322.527344 16.8125 323.476562 16.859375 324.425781 16.957031 C 325.375 17.050781 326.316406 17.191406 327.253906 17.375 C 328.1875 17.5625 329.109375 17.796875 330.023438 18.074219 C 330.9375 18.351562 331.832031 18.671875 332.710938 19.039062 C 333.59375 19.402344 334.453125 19.8125 335.292969 20.261719 C 336.136719 20.710938 336.953125 21.199219 337.746094 21.730469 C 338.539062 22.261719 339.300781 22.828125 340.039062 23.433594 C 340.777344 24.039062 341.480469 24.679688 342.15625 25.351562 C 342.828125 26.027344 343.46875 26.734375 344.074219 27.472656 C 344.679688 28.207031 345.246094 28.972656 345.777344 29.765625 C 346.304688 30.558594 346.796875 31.375 347.246094 32.21875 C 347.695312 33.058594 348.105469 33.917969 348.46875 34.800781 C 348.835938 35.679688 349.15625 36.578125 349.433594 37.488281 C 349.710938 38.402344 349.941406 39.328125 350.128906 40.261719 C 350.316406 41.195312 350.457031 42.140625 350.550781 43.089844 C 350.644531 44.039062 350.691406 44.988281 350.695312 45.941406 Z M 350.695312 329.703125 " fill-opacity="1" fill-rule="nonzero"/></g><g clip-path="url(#7032b916ff)"><path fill="#000000" d="M 147.414062 68.886719 C 147.257812 68.851562 147.101562 68.8125 146.941406 68.777344 C 143.847656 74.386719 141.761719 80.421875 139.480469 86.773438 C 141.980469 85.992188 144.171875 85.210938 146.414062 84.636719 C 147.8125 84.277344 148.371094 83.480469 148.351562 82.148438 C 148.335938 80.796875 148.597656 79.476562 148.949219 78.199219 C 149.320312 76.832031 149.382812 75.746094 148.269531 74.601562 C 147.527344 73.835938 147.433594 72.59375 147.417969 71.476562 C 147.40625 70.613281 147.414062 69.75 147.414062 68.886719 Z M 121.03125 246.570312 C 120.839844 244.167969 120.605469 242.050781 120.519531 239.929688 C 120.386719 236.691406 120.558594 233.464844 121.257812 230.28125 C 121.40625 229.597656 121.535156 228.921875 120.742188 228.398438 C 119.246094 227.410156 117.816406 226.320312 116.136719 225.113281 C 115.414062 232.699219 114.652344 239.960938 114.835938 247.53125 C 116.941406 246.890625 118.867188 246.597656 121.03125 246.570312 Z M 250.824219 166.488281 C 249.710938 166.261719 249.03125 166.835938 248.25 166.882812 C 247.269531 166.941406 246.90625 167.5625 246.8125 168.441406 C 246.410156 172.25 246.523438 175.988281 248.011719 179.601562 C 248.347656 180.417969 248.6875 180.726562 249.589844 180.417969 C 252.132812 179.542969 254.78125 179.125 257.441406 178.8125 C 258.34375 178.710938 258.5625 178.339844 258.726562 177.511719 C 259.082031 175.722656 258.992188 173.902344 259.238281 172.113281 C 259.695312 168.84375 258.5625 166.128906 256.535156 163.652344 C 255.441406 164.1875 254.464844 164.691406 253.460938 165.140625 C 252.820312 165.429688 252.503906 165.828125 252.492188 166.574219 C 252.4375 169.578125 252.507812 172.5625 253.457031 175.453125 C 253.617188 175.9375 254.0625 176.371094 253.636719 177.097656 C 251.167969 173.917969 250.972656 170.230469 250.824219 166.488281 Z M 126.179688 93.101562 C 129.652344 91.585938 132.746094 89.65625 136.148438 88.382812 C 137.617188 87.828125 138.15625 86.894531 138.417969 85.480469 C 139.472656 79.773438 141.433594 74.382812 144.222656 69.292969 C 145.164062 67.578125 146.09375 65.859375 147.121094 63.972656 C 145.003906 63.957031 143.203125 64.59375 141.347656 64.730469 C 140.359375 64.800781 139.757812 65.28125 139.363281 66.148438 C 139.097656 66.71875 138.738281 67.246094 138.457031 67.808594 C 135.515625 73.746094 132.566406 79.679688 129.65625 85.632812 C 128.449219 88.097656 127.335938 90.609375 126.179688 93.101562 Z M 219.160156 101.84375 C 219.5625 95.726562 221.238281 90.328125 222.878906 84.820312 C 220.503906 84.488281 218.324219 84.234375 216.160156 83.867188 C 213.679688 83.441406 211.210938 82.9375 208.742188 82.433594 C 207.828125 82.246094 207.34375 82.339844 207.152344 83.464844 C 206.746094 85.875 206.476562 88.28125 206.417969 90.726562 C 206.386719 91.917969 206.828125 92.589844 207.824219 93.171875 C 209.800781 94.328125 211.644531 95.6875 213.414062 97.136719 C 215.222656 98.621094 217.03125 100.101562 219.160156 101.84375 Z M 236.882812 115.289062 C 236.882812 113 236.695312 111.164062 236.914062 109.378906 C 237.617188 103.679688 238.957031 98.078125 239.390625 92.328125 C 239.667969 88.710938 239.558594 85.082031 239.875 81.46875 C 239.964844 80.460938 239.730469 79.425781 239.691406 78.402344 C 239.664062 77.746094 239.609375 77.109375 238.953125 76.78125 C 237.84375 76.222656 236.804688 75.492188 235.234375 75.175781 C 235.464844 77.058594 235.015625 78.71875 234.914062 80.429688 C 234.578125 85.933594 234.039062 91.421875 233.214844 96.867188 C 232.527344 101.371094 232.082031 105.933594 230.722656 110.324219 C 230.53125 110.9375 230.441406 111.507812 231.207031 111.929688 C 232.980469 112.917969 234.703125 113.992188 236.882812 115.289062 Z M 202.867188 266.902344 C 204.300781 266.902344 205.40625 266.863281 206.507812 266.914062 C 207.542969 266.964844 207.859375 266.507812 207.882812 265.515625 C 207.957031 262.671875 208.410156 259.878906 209.117188 257.121094 C 211.828125 246.558594 215.402344 236.277344 219.195312 226.0625 C 219.394531 225.527344 219.996094 225.003906 219.382812 224.3125 C 217.0625 225.039062 214.761719 225.875 212.398438 226.460938 C 210.773438 226.863281 210.394531 227.820312 210.203125 229.308594 C 209.539062 234.542969 208.8125 239.769531 207.972656 244.980469 C 206.792969 252.289062 205.601562 259.605469 202.867188 266.902344 Z M 103.585938 212.550781 C 103.964844 214.789062 104.414062 217.015625 104.710938 219.261719 C 105.71875 226.824219 106.625 234.398438 107.664062 241.953125 C 108.164062 245.625 108.976562 249.238281 110.367188 252.695312 C 110.988281 254.238281 111.820312 255.597656 113.445312 256.554688 C 113.304688 252.550781 113.554688 248.777344 112.832031 245.035156 C 112.578125 243.730469 112.417969 242.359375 112.515625 241.042969 C 112.914062 235.792969 113.097656 230.503906 114.574219 225.390625 C 114.847656 224.449219 114.695312 223.742188 113.910156 223.089844 C 112.882812 222.234375 111.921875 221.292969 110.953125 220.367188 C 108.394531 217.917969 106.171875 215.15625 103.585938 212.550781 Z M 187.449219 244.96875 C 187.765625 241.511719 188.050781 238.566406 188.757812 235.355469 C 186.398438 236.140625 184.335938 236.835938 182.265625 237.519531 C 181.691406 237.707031 181.621094 238.109375 181.675781 238.628906 C 181.816406 239.878906 182.15625 241.15625 182.003906 242.378906 C 181.667969 245.105469 181.722656 247.902344 180.828125 250.546875 C 180.539062 251.402344 180.804688 251.925781 181.707031 252.078125 C 185.78125 252.765625 189.875 253.332031 193.984375 254.394531 C 194.96875 246.144531 196.335938 238.195312 199.164062 230.46875 C 198.023438 230.828125 197.046875 231.285156 196.125 231.835938 C 194.316406 232.914062 191.769531 233.117188 190.695312 234.925781 C 189.601562 236.757812 189.40625 239.117188 188.761719 241.226562 C 188.425781 242.332031 188.492188 243.574219 187.449219 244.96875 Z M 228.476562 70.195312 C 227.296875 72.183594 226.703125 74.203125 226.226562 76.277344 C 225.578125 79.105469 225.75 82.011719 225.070312 84.878906 C 223.964844 89.550781 222.867188 94.246094 222.054688 98.988281 C 221.777344 100.613281 220.660156 102.300781 221.207031 103.796875 C 221.742188 105.257812 223.242188 106.351562 224.265625 107.648438 C 225.386719 109.066406 226.890625 109.761719 228.679688 110.289062 C 228.710938 107.761719 229.066406 105.429688 229.429688 103.097656 C 230.867188 93.828125 232.261719 84.554688 233.714844 75.292969 C 233.835938 74.515625 233.613281 74.105469 232.984375 73.765625 C 231.316406 72.855469 229.871094 71.644531 228.476562 70.195312 Z M 209.390625 227.5625 C 206.730469 228.304688 204.472656 228.960938 202.199219 229.5625 C 201.296875 229.800781 201.277344 230.507812 201.121094 231.199219 C 199.363281 239.050781 197.59375 246.898438 195.828125 254.746094 C 195.726562 255.199219 195.386719 255.667969 195.644531 256.117188 C 197.308594 259 197.105469 262.003906 196.25 265.046875 C 196.121094 265.503906 196.25 265.753906 196.632812 266.011719 C 198.867188 267.496094 200.492188 267.050781 201.496094 264.648438 C 201.679688 264.210938 201.828125 263.757812 201.984375 263.3125 C 203.59375 258.761719 204.613281 254.070312 205.433594 249.320312 C 206.292969 244.351562 206.648438 239.308594 207.773438 234.382812 C 208.265625 232.242188 208.785156 230.109375 209.390625 227.5625 Z M 149.214844 83.367188 C 149.53125 83.734375 149.777344 83.691406 150 83.636719 C 157.804688 81.78125 165.667969 81.167969 173.699219 81.726562 C 178.5625 82.0625 183.21875 83.011719 187.84375 84.382812 C 192.539062 85.769531 197.183594 87.292969 201.542969 89.589844 C 202.769531 90.234375 203.105469 90.042969 203.082031 88.625 C 203.050781 86.800781 203.394531 85.015625 203.441406 83.203125 C 203.488281 81.433594 203.5 81.375 201.8125 81.074219 C 192.496094 79.414062 183.144531 78.03125 173.730469 77.078125 C 168.949219 76.59375 164.160156 76.171875 159.367188 75.851562 C 156.929688 75.6875 154.46875 75.816406 152.019531 75.808594 C 151.390625 75.804688 150.984375 76.027344 150.828125 76.691406 C 150.296875 78.964844 149.734375 81.230469 149.214844 83.367188 Z M 284.238281 94.25 C 281.707031 95.460938 279.566406 96.230469 277.304688 96.667969 C 273.140625 97.476562 268.976562 97.203125 264.832031 96.597656 C 257.386719 95.507812 250.082031 93.910156 243.378906 90.28125 C 243.101562 90.132812 242.824219 89.992188 242.40625 90.320312 C 242.203125 97.28125 240.832031 104.195312 239.328125 111.304688 C 245.03125 109.671875 250.527344 109.179688 256.058594 109.550781 C 259.53125 109.78125 263.003906 109.882812 266.46875 109.78125 C 270.578125 109.660156 274.632812 109.042969 278.488281 107.5 C 281.355469 106.351562 283.292969 104.253906 284.46875 101.433594 C 284.726562 100.800781 284.992188 100.144531 284.46875 99.34375 C 283.007812 100.929688 281.347656 102.148438 279.308594 102.609375 C 274.816406 103.621094 270.246094 103.769531 265.664062 103.589844 C 265.113281 103.566406 264.332031 103.625 263.9375 102.820312 C 265.242188 102.625 266.484375 102.457031 267.71875 102.25 C 271.449219 101.609375 275.171875 100.929688 278.828125 99.9375 C 281.542969 99.199219 283.207031 97.355469 284.238281 94.25 Z M 179.046875 238.414062 C 159.460938 243.285156 141.136719 240.621094 123.765625 230.484375 C 123.5625 235.566406 123.167969 240.28125 123.183594 245.011719 C 123.191406 246.941406 123.164062 246.980469 125.039062 246.964844 C 133.015625 246.910156 140.984375 247.074219 148.921875 247.933594 C 154.246094 248.511719 159.570312 249.121094 164.890625 249.753906 C 168.878906 250.230469 172.867188 250.746094 176.847656 251.296875 C 177.941406 251.445312 178.527344 251.222656 178.433594 249.992188 C 178.347656 248.804688 178.664062 247.636719 178.703125 246.464844 C 178.785156 243.882812 179.53125 241.324219 179.046875 238.414062 Z M 180.164062 266.125 C 185.09375 266.09375 188.496094 266.265625 191.859375 265.605469 C 192.757812 265.429688 193.632812 265.191406 193.894531 264.230469 C 194.3125 262.714844 194.675781 261.175781 194.226562 259.574219 C 193.757812 257.898438 192.8125 256.816406 191.007812 256.542969 C 185.863281 255.753906 180.734375 254.851562 175.582031 254.132812 C 168.714844 253.171875 161.839844 252.269531 154.953125 251.484375 C 149.550781 250.871094 144.132812 250.292969 138.707031 250.023438 C 131.289062 249.65625 123.859375 249.609375 116.4375 249.390625 C 115.570312 249.363281 115.050781 249.476562 115.160156 250.492188 C 115.457031 253.234375 115.660156 255.992188 116.644531 258.609375 C 117.40625 260.640625 118.757812 262.046875 120.863281 262.78125 C 123.433594 263.679688 126.09375 263.933594 128.769531 264.042969 C 132.085938 264.175781 135.402344 263.933594 138.71875 263.765625 C 143.613281 263.511719 148.507812 263.886719 153.398438 264.089844 C 156.390625 264.21875 159.378906 264.480469 162.359375 264.773438 C 168.796875 265.402344 175.230469 266.015625 180.164062 266.125 Z M 229.558594 114.203125 C 240.453125 133.300781 243.683594 153.496094 238.898438 174.824219 C 234.121094 196.125 222.910156 213.390625 205.054688 226.394531 C 205.46875 226.457031 205.640625 226.539062 205.765625 226.492188 C 211.964844 224.367188 218.226562 222.425781 224.285156 219.90625 C 226.222656 219.097656 227.898438 217.996094 229.296875 216.425781 C 231.082031 214.421875 232.855469 212.417969 234.347656 210.164062 C 237.445312 205.476562 240.089844 200.53125 242.746094 195.589844 C 244.925781 191.546875 246.011719 187.035156 248.152344 182.980469 C 248.539062 182.253906 247.917969 182.050781 247.542969 181.679688 C 244.449219 178.636719 243.078125 175.078125 244.1875 170.71875 C 244.5 169.488281 245.144531 168.292969 245.179688 167.082031 C 245.234375 165.226562 246.273438 164.445312 247.722656 163.832031 C 248.378906 163.554688 249.019531 163.242188 249.679688 162.980469 C 250.414062 162.691406 250.796875 162.328125 250.648438 161.398438 C 250.351562 159.613281 250.257812 157.796875 250.042969 155.996094 C 249.277344 149.570312 248.300781 143.183594 246.21875 137.019531 C 244.417969 131.695312 242.457031 126.449219 238.957031 121.9375 C 236.410156 118.652344 232.949219 116.5 229.558594 114.203125 Z M 227.238281 68.324219 C 226.375 67.46875 225.320312 67.375 224.34375 67.152344 C 218.5 65.808594 212.664062 64.433594 206.800781 63.175781 C 196.777344 61.015625 186.65625 59.421875 176.496094 58.042969 C 170.710938 57.257812 164.882812 57 159.09375 56.324219 C 155.914062 55.949219 153.789062 57.195312 152.289062 59.902344 C 150.1875 63.691406 149.445312 67.734375 149.890625 72.011719 C 150.0625 73.644531 150.429688 73.941406 152.046875 73.675781 C 155.039062 73.183594 158.058594 73.300781 161.03125 73.488281 C 168.5 73.964844 175.953125 74.695312 183.378906 75.664062 C 191.820312 76.765625 200.234375 78.050781 208.578125 79.777344 C 213.417969 80.78125 218.261719 81.796875 223.460938 82.207031 C 222.984375 77.054688 223.996094 72.371094 227.238281 68.324219 Z M 218.574219 107.902344 C 219.011719 106.917969 218.285156 106.515625 217.820312 106.035156 C 212.519531 100.523438 206.625 95.832031 199.636719 92.566406 C 189.636719 87.894531 179.285156 84.960938 168.121094 85.085938 C 160.535156 85.175781 153.167969 86.339844 146.027344 88.769531 C 132.59375 93.339844 121.058594 100.859375 111.472656 111.355469 C 99.179688 124.808594 92.652344 140.742188 91.089844 158.777344 C 90.496094 165.652344 91.070312 172.496094 92.441406 179.261719 C 95.851562 196.082031 103.628906 210.460938 116.898438 221.5 C 133.859375 235.613281 153.417969 240.355469 175.015625 236.289062 C 189.628906 233.535156 202.167969 226.566406 212.738281 216.152344 C 227.570312 201.53125 235.863281 183.785156 237.585938 163.039062 C 238.191406 155.773438 237.695312 148.53125 236.257812 141.363281 C 233.886719 129.492188 228.796875 118.933594 221.085938 109.625 C 220.730469 109.199219 220.421875 108.65625 219.628906 108.628906 C 219.777344 109.746094 220.492188 110.285156 221.035156 110.929688 C 227.1875 118.246094 231.417969 126.570312 233.867188 135.785156 C 235.089844 140.367188 235.605469 145.058594 235.96875 149.800781 C 236.296875 154.09375 236.101562 158.320312 235.507812 162.53125 C 234.664062 168.496094 232.910156 174.238281 230.640625 179.816406 C 223.777344 196.695312 213.113281 210.492188 197.449219 220.082031 C 181.242188 230.003906 163.753906 233.816406 144.980469 229.933594 C 129.582031 226.75 116.671875 219.160156 107.050781 206.582031 C 94.210938 189.804688 90.738281 170.761719 94.582031 150.316406 C 98.035156 131.9375 107.175781 116.675781 121.527344 104.714844 C 137.71875 91.21875 156.398438 85.242188 177.457031 87.535156 C 192.65625 89.191406 205.835938 95.304688 216.644531 106.265625 C 217.222656 106.847656 217.699219 107.59375 218.574219 107.902344 Z M 159.609375 53.699219 C 160.996094 54.160156 162 54.285156 163.039062 54.292969 C 164.621094 54.3125 166.207031 54.324219 167.777344 54.480469 C 175.78125 55.292969 183.75 56.335938 191.691406 57.636719 C 203.621094 59.589844 215.457031 61.972656 227.019531 65.5625 C 228.101562 65.898438 228.550781 65.675781 229.035156 64.722656 C 232.46875 57.953125 237.464844 52.535156 243.613281 48.160156 C 248.078125 44.980469 252.898438 42.757812 258.5625 43.027344 C 258.761719 43.035156 259.0625 43.046875 259.066406 42.523438 C 256.574219 40.71875 253.710938 39.433594 250.777344 38.308594 C 243.429688 35.488281 235.742188 34.101562 227.992188 33.027344 C 222.757812 32.300781 217.496094 31.832031 212.222656 31.425781 C 205.292969 30.890625 198.367188 30.21875 191.410156 30.730469 C 185.445312 31.167969 179.941406 32.910156 175.378906 36.988281 C 173.550781 38.617188 171.847656 40.394531 169.953125 41.933594 C 165.914062 45.21875 163.316406 49.703125 159.609375 53.699219 Z M 122.382812 266.109375 C 122.941406 267.535156 123.371094 268.625 123.796875 269.71875 C 128.207031 281.066406 131.164062 292.871094 134.667969 304.507812 C 137.125 312.675781 139.785156 320.777344 143.105469 328.636719 C 144.550781 332.054688 146.207031 335.375 149.132812 337.871094 C 153.226562 341.371094 158.03125 342.742188 163.308594 343.03125 C 167.261719 343.253906 171.195312 343.167969 175.136719 343.003906 C 180.492188 342.777344 185.839844 342.417969 191.148438 341.640625 C 198.5 340.5625 205.691406 338.707031 212.929688 337.097656 C 213.542969 336.960938 214.308594 336.953125 214.886719 336.265625 C 212.535156 334.386719 210.972656 332.070312 209.78125 329.445312 C 208.039062 325.617188 206.78125 321.625 205.859375 317.542969 C 204.03125 309.464844 202.609375 301.304688 201.167969 293.152344 C 199.804688 285.46875 198.621094 277.757812 198.359375 269.9375 C 198.320312 268.78125 195.476562 266.953125 194.257812 267.324219 C 190.285156 268.523438 186.195312 268.640625 182.101562 268.824219 C 179.953125 268.917969 177.847656 268.570312 175.722656 268.457031 C 172.101562 268.273438 168.492188 267.929688 164.878906 267.621094 C 161.109375 267.296875 157.347656 266.84375 153.574219 266.609375 C 147.414062 266.230469 141.238281 266.410156 135.074219 266.457031 C 130.980469 266.492188 126.886719 266.8125 122.382812 266.109375 Z M 252.742188 161.933594 C 254 162.023438 255.171875 162.109375 256.351562 162.183594 C 257.964844 162.285156 259.125 163.015625 260.035156 164.394531 C 261.808594 167.089844 262.546875 169.945312 261.914062 173.140625 C 261.484375 175.316406 260.75 177.472656 259.664062 179.308594 C 258.894531 180.609375 256.789062 180.78125 255.285156 181.464844 C 253.996094 182.050781 252.648438 182.539062 251.28125 182.917969 C 250.464844 183.144531 250.121094 183.539062 249.984375 184.339844 C 249.667969 186.21875 249.003906 187.992188 248.292969 189.753906 C 244.714844 198.605469 239.71875 206.644531 234.089844 214.300781 C 231.199219 218.230469 227.746094 221.570312 222.828125 222.941406 C 221.84375 223.21875 221.324219 223.835938 221.09375 224.925781 C 220.195312 229.257812 218.90625 233.488281 217.511719 237.683594 C 214.421875 246.976562 211.210938 256.226562 208.878906 265.742188 C 208.566406 267.023438 208.0625 267.644531 206.875 267.898438 C 206.105469 268.0625 205.320312 268.203125 204.582031 268.46875 C 203.152344 268.988281 201.574219 268.519531 200.144531 269.15625 C 200.144531 269.503906 200.074219 269.832031 200.152344 270.121094 C 201.738281 275.835938 202.277344 281.746094 203.347656 287.554688 C 204.949219 296.238281 206.632812 304.910156 208.363281 313.570312 C 209.445312 319 211.046875 324.253906 213.503906 329.273438 C 215.296875 332.925781 220.496094 335.566406 224.972656 333.421875 C 226.882812 332.507812 228.496094 331.320312 229.683594 329.589844 C 233.171875 324.507812 236.914062 319.597656 239.996094 314.246094 C 248.035156 300.292969 254.242188 285.558594 259.09375 270.210938 C 265.292969 250.609375 268.875 230.582031 269.445312 210.023438 C 269.578125 205.128906 269.652344 200.234375 269.851562 195.339844 C 270.121094 188.558594 270.171875 181.761719 270.332031 174.96875 C 270.542969 166.289062 270.679688 157.613281 271.292969 148.945312 C 271.730469 142.800781 272.566406 136.722656 273.589844 130.660156 C 274.679688 124.230469 275.800781 117.804688 276.910156 111.351562 C 276.121094 111.050781 275.449219 111.359375 274.777344 111.507812 C 271.847656 112.167969 268.878906 112.542969 265.878906 112.65625 C 261.6875 112.816406 257.519531 112.277344 253.335938 112.238281 C 248.988281 112.195312 244.636719 112.199219 240.285156 112.1875 C 239.816406 112.1875 239.152344 112.070312 238.960938 112.484375 C 238.464844 113.542969 238.050781 114.667969 237.789062 115.808594 C 237.636719 116.488281 238.394531 116.859375 238.824219 117.296875 C 241.171875 119.6875 243.085938 122.386719 244.550781 125.386719 C 250.183594 136.90625 252.976562 149.070312 252.742188 161.933594 Z M 129.898438 201.46875 L 129.945312 201.519531 C 130.117188 200.5625 130.945312 200.167969 131.585938 199.621094 C 145.113281 188.105469 158.621094 176.5625 172.1875 165.089844 C 185.214844 154.074219 198.203125 143.007812 211.554688 132.386719 C 215.941406 128.894531 220.351562 125.4375 224.796875 121.929688 C 223.949219 119.933594 222.671875 118.226562 221.492188 116.46875 C 218.207031 111.578125 214.3125 107.246094 209.660156 103.609375 C 207.585938 101.988281 207.621094 102.011719 205.710938 103.761719 C 202.277344 106.910156 198.816406 110.03125 195.347656 113.140625 C 186.464844 121.097656 177.550781 129.019531 168.6875 136.992188 C 160.585938 144.285156 152.464844 151.558594 144.488281 158.988281 C 137.265625 165.714844 129.875 172.261719 122.515625 178.839844 C 119.734375 181.324219 116.972656 183.839844 113.90625 185.980469 C 142.910156 155.789062 174.507812 128.433594 206.507812 101.570312 C 206.070312 100.816406 205.460938 100.574219 204.941406 100.230469 C 203.242188 99.101562 203.214844 99.097656 201.730469 100.425781 C 196.144531 105.429688 190.554688 110.429688 184.996094 115.472656 C 177.625 122.160156 170.375 128.984375 162.917969 135.570312 C 145.917969 150.574219 128.265625 164.796875 110.484375 178.859375 C 110.117188 179.148438 109.835938 179.835938 108.917969 179.339844 C 124.050781 165.332031 139.617188 151.972656 155.226562 138.660156 C 170.808594 125.371094 185.671875 111.25 201.925781 98.542969 C 201.386719 98.132812 201.160156 97.914062 200.890625 97.761719 C 194.40625 94.15625 187.472656 91.839844 180.171875 90.574219 C 179.164062 90.398438 178.554688 90.859375 177.886719 91.476562 C 174.863281 94.253906 171.863281 97.066406 168.753906 99.742188 C 161.6875 105.820312 154.492188 111.742188 147.476562 117.871094 C 132.84375 130.652344 118.054688 143.246094 102.960938 155.476562 C 102.589844 155.773438 102.34375 156.433594 101.449219 155.988281 C 113.5 144.3125 125.855469 133.140625 138.382812 122.144531 C 150.859375 111.191406 163.996094 101.035156 176.75 90.347656 C 174.933594 90.179688 173.292969 89.441406 171.578125 90.847656 C 162.230469 98.507812 152.753906 106.007812 143.390625 113.652344 C 130.910156 123.84375 118.566406 134.199219 105.820312 144.066406 C 104.621094 144.996094 103.488281 146.039062 101.976562 146.546875 C 112.257812 136.078125 123.429688 126.625 134.824219 117.414062 C 146.269531 108.167969 157.886719 99.132812 169.761719 90.339844 C 169.132812 89.738281 168.640625 89.898438 168.191406 89.886719 C 164.707031 89.796875 161.253906 90.136719 157.835938 90.816406 C 131.507812 96.042969 112.714844 110.917969 101.601562 135.257812 C 95.238281 149.191406 93.957031 163.859375 97.234375 178.804688 C 101.425781 197.929688 112 212.515625 129.324219 221.832031 C 139.410156 227.257812 150.347656 229.285156 161.820312 228.675781 C 167.460938 228.375 172.957031 227.480469 178.34375 225.867188 C 190.238281 222.3125 200.5 216.03125 209.535156 207.542969 C 220.398438 197.332031 227.488281 185.015625 230.90625 170.546875 C 231.074219 169.851562 231.101562 169.125 231.246094 167.996094 C 222.523438 176.707031 213.566406 184.457031 204.710938 192.3125 C 195.824219 200.191406 186.824219 207.9375 177.875 215.742188 C 177.761719 215.628906 177.652344 215.519531 177.542969 215.410156 C 177.980469 214.917969 178.378906 214.382812 178.859375 213.945312 C 184.109375 209.152344 189.34375 204.34375 194.632812 199.601562 C 206.453125 189.003906 218.304688 178.445312 230.132812 167.863281 C 230.714844 167.34375 231.464844 166.871094 231.632812 166.066406 C 232.113281 163.738281 232.574219 161.394531 232.429688 158.996094 C 231.851562 158.988281 231.65625 159.253906 231.453125 159.476562 C 225.265625 166.261719 218.550781 172.511719 211.722656 178.628906 C 202.019531 187.320312 192.132812 195.8125 182.152344 204.1875 C 175.921875 209.417969 169.765625 214.742188 163.3125 219.703125 C 162.769531 220.121094 162.269531 220.71875 161.222656 220.746094 C 161.671875 220.25 161.914062 219.933594 162.203125 219.671875 C 168.539062 213.957031 174.925781 208.308594 181.203125 202.53125 C 192.25 192.375 203.746094 182.726562 214.960938 172.753906 C 220.566406 167.765625 226.082031 162.675781 231.527344 157.511719 C 232.53125 156.5625 232.875 155.5625 232.910156 154.199219 C 233.144531 145.453125 231.324219 137.105469 228.214844 128.988281 C 227.945312 128.285156 227.855469 127.441406 227.050781 126.996094 C 223.660156 130.089844 220.28125 133.175781 216.894531 136.253906 C 209.121094 143.320312 201.402344 150.441406 193.550781 157.421875 C 179.917969 169.539062 166.207031 181.566406 152.222656 193.28125 C 146.226562 198.300781 140.296875 203.402344 134.003906 208.058594 C 133.09375 208.730469 132.167969 209.382812 131.035156 210.195312 C 131.132812 209.230469 131.632812 209.082031 131.964844 208.792969 C 136.476562 204.839844 141.023438 200.925781 145.511719 196.9375 C 153.363281 189.960938 161.160156 182.921875 169.011719 175.949219 C 176.75 169.078125 184.511719 162.242188 192.292969 155.421875 C 200.84375 147.929688 209.152344 140.152344 217.878906 132.855469 C 220.421875 130.726562 222.917969 128.546875 225.429688 126.378906 C 226.542969 125.417969 226.671875 124.785156 225.863281 123.871094 C 224.933594 122.824219 224.507812 123.992188 224.011719 124.421875 C 221.796875 126.328125 219.648438 128.308594 217.429688 130.214844 C 205.8125 140.195312 194.207031 150.1875 182.550781 160.128906 C 166.078125 174.179688 149.015625 187.5 131.742188 200.550781 C 131.195312 200.964844 130.722656 201.585938 129.898438 201.46875 Z M 271.042969 53.8125 C 268.78125 50.085938 265.589844 47.484375 261.414062 46.238281 C 257.078125 44.945312 252.929688 45.8125 249.066406 47.929688 C 240.976562 52.375 234.664062 58.660156 230.082031 66.671875 C 229.84375 67.082031 229.648438 67.515625 229.445312 67.941406 C 229.242188 68.378906 229.402344 68.710938 229.804688 68.910156 C 230.15625 69.085938 230.378906 68.871094 230.585938 68.601562 C 231.164062 67.855469 231.738281 67.097656 232.351562 66.375 C 234.519531 63.84375 236.765625 61.382812 239.480469 59.363281 C 237.265625 63.242188 234.589844 66.789062 231.839844 70.273438 C 232.621094 71.195312 233.667969 71.425781 234.539062 71.941406 C 235.25 72.367188 235.683594 72.074219 236.105469 71.46875 C 237.996094 68.738281 240.277344 66.316406 242.476562 63.839844 C 244.472656 61.585938 246.398438 59.246094 248.9375 57.507812 C 245.46875 62.929688 241.566406 68.023438 237.621094 73.234375 C 238.96875 74.027344 240.164062 74.734375 241.5 75.523438 C 244.324219 71.664062 247.355469 68.03125 250.617188 64.601562 C 253.820312 61.230469 256.804688 57.636719 260.53125 54.375 C 260.480469 55.425781 260 55.878906 259.648438 56.371094 C 254.675781 63.308594 249.652344 70.203125 243.902344 76.535156 C 243.277344 77.222656 242.46875 77.84375 242.402344 78.871094 C 242.292969 80.566406 242.492188 82.238281 242.695312 83.894531 C 243.265625 83.835938 243.425781 83.550781 243.605469 83.296875 C 249.949219 74.371094 257.375 66.394531 265.246094 58.828125 C 267.105469 57.042969 268.710938 54.917969 271.117188 53.746094 C 270.773438 55.101562 269.785156 56.058594 268.976562 57.109375 C 262.550781 65.425781 255.730469 73.414062 248.949219 81.4375 C 246.988281 83.757812 245.066406 86.109375 242.945312 88.261719 C 243.578125 88.9375 244.277344 88.886719 244.832031 89.167969 C 245.808594 89.664062 246.371094 89.3125 247.011719 88.503906 C 252.625 81.425781 259.160156 75.210938 265.683594 68.992188 C 266.214844 68.480469 266.746094 67.992188 267.566406 67.921875 C 261.589844 75.664062 255.363281 83.148438 248.53125 90.234375 C 249.921875 90.914062 251.261719 91.117188 252.519531 91.566406 C 253.363281 91.867188 253.875 91.582031 254.355469 90.980469 C 257.769531 86.695312 261.914062 83.117188 265.707031 79.203125 C 266.835938 78.035156 268.089844 76.992188 269.289062 75.890625 C 265.429688 81.746094 260.707031 86.875 256.097656 92.226562 C 257.660156 92.964844 259.242188 93.0625 260.78125 93.34375 C 261.488281 93.472656 262.007812 93.175781 262.410156 92.628906 C 263.984375 90.515625 266.105469 88.949219 267.992188 87.160156 C 269.640625 85.601562 271.203125 83.882812 273.273438 82.796875 C 270.9375 86.90625 267.464844 90.117188 264.503906 93.980469 C 265.269531 94.097656 265.726562 94.15625 266.175781 94.238281 C 267.671875 94.5 268.902344 94.308594 269.863281 92.875 C 270.519531 91.898438 271.5625 91.175781 272.789062 89.996094 C 272.125 91.996094 270.527344 92.847656 270.351562 94.625 C 271.90625 94.625 273.335938 94.742188 274.742188 94.597656 C 277.105469 94.355469 279.433594 93.867188 281.570312 92.777344 C 283.253906 91.921875 283.558594 90.992188 282.699219 89.304688 C 281.949219 87.824219 280.972656 86.53125 279.242188 85.726562 C 278.53125 88.40625 278.636719 91.140625 277.453125 93.648438 C 276.84375 93 276.742188 92.339844 276.722656 91.640625 C 276.675781 90.21875 276.605469 88.796875 276.566406 87.375 C 276.433594 82.792969 277.226562 78.246094 277.054688 73.652344 C 276.820312 67.484375 275.367188 61.640625 272.691406 56.09375 C 272.28125 55.246094 271.808594 54.414062 271.042969 53.8125 Z M 88.015625 164.394531 C 88.160156 143.257812 95.242188 124.699219 108.980469 108.652344 C 112.847656 104.132812 117.160156 100.074219 121.980469 96.574219 C 122.980469 95.847656 123.652344 95.027344 123.96875 93.785156 C 125.121094 89.230469 127.261719 85.070312 129.320312 80.890625 C 131.761719 75.929688 134.398438 71.058594 136.792969 66.074219 C 138.011719 63.523438 139.789062 62.152344 142.617188 61.988281 C 144.1875 61.898438 145.742188 61.585938 147.304688 61.363281 C 148.4375 61.199219 149.285156 60.773438 149.886719 59.632812 C 151.417969 56.726562 153.589844 54.476562 157.050781 54.023438 C 158.085938 53.886719 158.257812 53.152344 158.582031 52.457031 C 160.117188 49.144531 161.820312 45.925781 164.335938 43.242188 C 167.800781 39.542969 171.5 36.078125 175.710938 33.242188 C 181.902344 29.070312 188.925781 27.773438 196.234375 27.722656 C 203.429688 27.671875 210.582031 28.347656 217.734375 29.066406 C 224.886719 29.789062 232.015625 30.597656 239.050781 32.074219 C 246.679688 33.671875 254.050781 35.949219 260.566406 40.421875 C 262.660156 41.859375 264.628906 43.429688 266.429688 45.222656 C 267.101562 45.886719 267.820312 46.515625 268.585938 47.070312 C 271.53125 49.203125 273.789062 51.921875 275.398438 55.148438 C 277.675781 59.707031 279.039062 64.527344 279.613281 69.621094 C 280.078125 73.742188 279.773438 77.808594 279.445312 81.898438 C 279.363281 82.925781 279.53125 83.496094 280.691406 84.019531 C 283.484375 85.285156 285.257812 87.484375 285.828125 90.652344 C 286.207031 92.777344 286.613281 94.832031 285.785156 96.921875 C 285.636719 97.292969 285.5625 97.648438 285.792969 98.042969 C 287.335938 100.703125 286.246094 103.054688 284.894531 105.359375 C 283.78125 107.257812 282.175781 108.667969 280.191406 109.5625 C 279.03125 110.085938 278.597656 110.78125 278.535156 112.074219 C 278.054688 122.398438 276.332031 132.597656 275.359375 142.867188 C 274.949219 147.183594 274.855469 151.53125 274.664062 155.867188 C 274.351562 162.890625 274.359375 169.925781 274.113281 176.945312 C 273.917969 182.550781 273.96875 188.164062 273.667969 193.757812 C 273.390625 198.886719 273.460938 204.023438 273.210938 209.148438 C 272.675781 220.015625 271.917969 230.867188 269.933594 241.589844 C 268.050781 251.769531 265.476562 261.777344 262.480469 271.679688 C 257.40625 288.480469 250.519531 304.476562 241.128906 319.335938 C 238.175781 324.015625 234.824219 328.425781 231.519531 332.867188 C 229.472656 335.617188 226.679688 337.117188 223.382812 337.738281 C 221.894531 338.015625 220.484375 338.449219 219.121094 339.097656 C 215.230469 340.945312 210.996094 341.667969 206.875 342.734375 C 198.90625 344.792969 190.808594 346.128906 182.597656 346.574219 C 177.476562 346.851562 172.34375 347.359375 167.207031 347.085938 C 163.429688 346.882812 159.628906 346.757812 155.953125 345.671875 C 148.066406 343.34375 142.699219 338.1875 139.425781 330.789062 C 135.742188 322.464844 132.890625 313.839844 130.457031 305.082031 C 126.84375 292.074219 123.414062 279.015625 119.183594 266.183594 C 118.949219 265.476562 118.789062 264.914062 118.0625 264.535156 C 116.21875 263.574219 115.074219 261.992188 114.390625 260.058594 C 114.210938 259.5625 114.175781 259.027344 113.464844 258.832031 C 110.859375 258.113281 109.519531 256.105469 108.53125 253.785156 C 106.839844 249.832031 105.882812 245.675781 105.285156 241.449219 C 104.136719 233.335938 103.058594 225.210938 102.039062 217.078125 C 101.792969 215.125 101.828125 213.132812 101.851562 211.15625 C 101.863281 210 101.570312 209.039062 100.9375 208.0625 C 95.25 199.28125 91.265625 189.796875 89.3125 179.492188 C 88.367188 174.511719 87.835938 169.496094 88.015625 164.394531 " fill-opacity="1" fill-rule="nonzero"/></g><path fill="#000000" d="M 174.734375 218.242188 C 174.535156 217.859375 174.867188 217.703125 175.066406 217.515625 C 175.550781 217.042969 175.921875 216.429688 176.632812 216.207031 C 176.144531 217.171875 176.144531 217.171875 174.734375 218.242188 " fill-opacity="1" fill-rule="nonzero"/><path fill="#000000" d="M 129.898438 201.46875 C 129.820312 202.285156 129.105469 202.355469 128.570312 202.636719 C 128.796875 201.976562 129.105469 201.414062 129.945312 201.519531 L 129.898438 201.46875 " fill-opacity="1" fill-rule="nonzero"/><path fill="#000000" d="M 219.648438 323.90625 C 219.777344 322.570312 220.554688 321.648438 221.175781 320.707031 C 227.976562 310.347656 233.132812 299.171875 237.484375 287.621094 C 241.582031 276.75 244.546875 265.53125 247.132812 254.21875 C 249.863281 242.304688 252.355469 230.339844 254.539062 218.308594 C 255.617188 212.355469 256.535156 206.378906 257.382812 200.382812 C 257.835938 203.433594 257.371094 206.464844 257.015625 209.453125 C 255.136719 225.113281 252.464844 240.652344 249.03125 256.046875 C 245.222656 273.121094 240.082031 289.761719 231.984375 305.371094 C 228.957031 311.207031 225.632812 316.847656 221.601562 322.050781 C 221.089844 322.707031 220.734375 323.550781 219.648438 323.90625 " fill-opacity="1" fill-rule="nonzero"/><path fill="#000000" d="M 218.316406 305.808594 C 218.210938 304.453125 218.890625 303.355469 219.382812 302.230469 C 221.9375 296.367188 224.539062 290.53125 226.773438 284.535156 C 230.71875 273.941406 233.574219 263.03125 236.246094 252.070312 C 239.554688 238.511719 242.789062 224.9375 245.492188 211.242188 C 245.808594 209.628906 246.113281 208.019531 246.480469 206.125 C 246.992188 207.375 246.695312 208.378906 246.558594 209.316406 C 245.214844 218.519531 243.457031 227.648438 241.515625 236.742188 C 239.101562 248.078125 236.730469 259.425781 233.496094 270.574219 C 230.054688 282.449219 225.28125 293.773438 219.5 304.683594 C 219.316406 305.027344 219.082031 305.347656 218.835938 305.652344 C 218.757812 305.746094 218.558594 305.742188 218.316406 305.808594 " fill-opacity="1" fill-rule="nonzero"/><path fill="#000000" d="M 237.367188 222.066406 C 236.402344 230.382812 234.265625 238.457031 232.273438 246.5625 C 231.183594 250.996094 230.132812 255.449219 228.667969 259.785156 C 228.269531 260.96875 227.9375 262.191406 226.867188 263.125 C 227.433594 261.003906 228.015625 258.886719 228.566406 256.761719 C 231.128906 246.929688 233.90625 237.144531 235.988281 227.191406 C 236.277344 225.808594 236.5625 224.421875 236.816406 223.035156 C 236.890625 222.625 236.964844 222.265625 237.410156 222.121094 L 237.367188 222.066406 " fill-opacity="1" fill-rule="nonzero"/><path fill="#000000" d="M 237.410156 222.121094 C 237.015625 221.1875 237.539062 220.246094 237.488281 219.316406 C 237.398438 220.222656 237.871094 221.144531 237.359375 222.058594 C 237.367188 222.066406 237.410156 222.121094 237.410156 222.121094 " fill-opacity="1" fill-rule="nonzero"/><path fill="#000000" d="M 187.605469 319.785156 C 184.089844 321.363281 180.347656 321.910156 176.613281 322.472656 C 174.972656 322.714844 173.324219 322.871094 171.679688 323.070312 C 170.261719 323.242188 170.171875 323.300781 170.816406 324.703125 C 171.871094 327 173.039062 329.242188 174.167969 331.503906 C 174.410156 331.988281 174.683594 332.460938 174.628906 333.167969 C 174.117188 332.414062 173.582031 331.671875 173.097656 330.898438 C 171.828125 328.890625 170.753906 326.777344 169.757812 324.625 C 169.339844 323.71875 168.828125 323.355469 167.753906 323.476562 C 162.957031 324.019531 158.140625 324.058594 153.320312 324.03125 C 151.5625 324.019531 149.863281 323.730469 148.160156 323.375 C 147.722656 323.28125 147.222656 323.214844 146.992188 322.429688 C 149.355469 322.242188 151.597656 322.9375 153.867188 322.910156 C 156.3125 322.882812 158.753906 322.898438 161.203125 322.636719 C 163.53125 322.386719 165.890625 322.464844 168.171875 322.402344 C 168.527344 321.421875 167.976562 320.832031 167.71875 320.214844 C 164.464844 312.578125 161.707031 304.761719 159.367188 296.800781 C 158.804688 294.890625 158.804688 294.910156 156.789062 294.980469 C 150.78125 295.183594 144.789062 295 138.839844 294.054688 C 137.890625 293.902344 136.863281 293.824219 136.242188 292.585938 C 139.863281 292.886719 143.480469 293.304688 147.109375 293.453125 C 150.808594 293.601562 154.519531 293.484375 158.339844 293.484375 C 157.027344 286.019531 156.246094 278.667969 156.488281 271.238281 C 156.496094 271.011719 156.597656 270.789062 156.910156 270.753906 C 157.488281 270.882812 157.484375 271.382812 157.519531 271.84375 C 157.796875 275.457031 158.027344 279.070312 158.351562 282.679688 C 158.625 285.742188 159.089844 288.777344 159.722656 291.792969 C 160.015625 293.207031 160.664062 293.519531 161.984375 293.511719 C 169.246094 293.460938 176.488281 293.164062 183.695312 292.21875 C 184.078125 292.167969 184.46875 292.164062 184.882812 292.292969 C 183.082031 293.144531 181.113281 293.285156 179.191406 293.542969 C 177.160156 293.8125 175.121094 293.996094 173.074219 294.164062 C 171.03125 294.332031 168.988281 294.476562 166.941406 294.59375 C 164.90625 294.714844 162.875 294.875 160.765625 295.023438 C 160.921875 297.164062 161.683594 298.992188 162.230469 300.867188 C 164.140625 307.390625 166.40625 313.792969 168.878906 320.125 C 169.699219 322.226562 169.742188 322.292969 171.980469 322.078125 C 177 321.59375 182.019531 321.082031 186.917969 319.792969 C 187.132812 319.738281 187.375 319.785156 187.605469 319.785156 " fill-opacity="1" fill-rule="nonzero"/><path fill="#000000" d="M 183.503906 39.6875 C 184.953125 38.929688 186.433594 38.78125 187.988281 38.953125 C 192.621094 39.464844 197.183594 40.375 201.71875 41.394531 C 203.324219 41.757812 204.417969 41.488281 205.460938 40.253906 C 206.359375 39.179688 207.378906 38.1875 208.832031 37.671875 C 207.578125 38.992188 206.328125 40.3125 204.871094 41.851562 C 209.832031 43.332031 214.746094 43.828125 219.304688 45.609375 C 214.738281 44.789062 210.160156 44.003906 205.605469 43.117188 C 204.421875 42.886719 203.617188 43.039062 203.082031 44.476562 C 209.113281 45.605469 215.210938 46.015625 220.996094 47.941406 C 214.984375 47.28125 208.976562 46.632812 202.96875 45.9375 C 201.910156 45.816406 201.386719 46.371094 200.871094 47.132812 C 199.058594 49.816406 197.292969 52.523438 195.859375 55.433594 C 195.621094 55.914062 195.460938 56.457031 194.496094 56.996094 C 195.507812 52.554688 198.269531 49.507812 200.402344 45.972656 C 197.628906 45.214844 194.875 45.308594 192.1875 44.945312 C 190.082031 44.65625 187.957031 44.496094 185.878906 44.011719 C 185.5 43.921875 185.105469 43.839844 184.757812 43.671875 C 184.589844 43.589844 184.402344 43.304688 184.421875 43.140625 C 184.445312 42.960938 184.679688 42.75 184.871094 42.667969 C 185.070312 42.589844 185.335938 42.621094 185.566406 42.648438 C 190.484375 43.277344 195.457031 43.386719 200.347656 44.242188 C 200.730469 44.308594 201.144531 44.316406 201.519531 44.246094 C 202.125 44.125 202.511719 43.640625 202.554688 43.085938 C 202.605469 42.421875 201.949219 42.492188 201.519531 42.425781 C 195.613281 41.460938 189.785156 39.953125 183.742188 40 C 183.703125 40 183.667969 39.902344 183.503906 39.6875 " fill-opacity="1" fill-rule="nonzero"/><path fill="#000000" d="M 215.867188 68.886719 C 202.605469 67.003906 189.597656 65.140625 176.582031 63.316406 C 170.890625 62.519531 165.1875 61.804688 159.492188 61.023438 C 158.933594 60.945312 157.964844 61.078125 158.054688 60.21875 C 158.144531 59.398438 159.082031 59.640625 159.652344 59.683594 C 163.339844 59.992188 167.035156 60.261719 170.703125 60.726562 C 181.332031 62.066406 191.894531 63.863281 202.4375 65.757812 C 206.15625 66.425781 209.878906 67.097656 213.546875 68.027344 C 214.3125 68.21875 215.058594 68.425781 215.867188 68.886719 " fill-opacity="1" fill-rule="nonzero"/><path fill="#000000" d="M 154.097656 68.53125 C 154.691406 67.484375 155.5625 67.726562 156.308594 67.746094 C 161.347656 67.859375 166.359375 68.378906 171.371094 68.820312 C 175.351562 69.167969 179.320312 69.664062 183.675781 70.136719 C 180.710938 70.867188 157.105469 69.53125 154.097656 68.53125 " fill-opacity="1" fill-rule="nonzero"/><path fill="#000000" d="M 139.6875 257.1875 C 155.03125 257.042969 170.371094 257.027344 185.671875 258.359375 C 181.71875 259.398438 146.894531 258.414062 139.6875 257.1875 " fill-opacity="1" fill-rule="nonzero"/><path fill="#000000" d="M 154 260.523438 C 151.519531 261.53125 127.730469 261.828125 121.582031 261.097656 C 126.488281 260.4375 150.125 259.972656 154 260.523438 " fill-opacity="1" fill-rule="nonzero"/></svg>