<svg xmlns="http://www.w3.org/2000/svg" xmlns:xlink="http://www.w3.org/1999/xlink" width="500" zoomAndPan="magnify" viewBox="0 0 375 374.999991" height="500" preserveAspectRatio="xMidYMid meet" version="1.0"><defs><clipPath id="8ff1ca597d"><path d="M 8.183594 0 L 366.683594 0 L 366.683594 375 L 8.183594 375 Z M 8.183594 0 " clip-rule="nonzero"/></clipPath><clipPath id="2d7cbcd7b3"><path d="M 38 81.320312 L 330.75 81.320312 L 330.75 267.320312 L 38 267.320312 Z M 38 81.320312 " clip-rule="nonzero"/></clipPath></defs><g clip-path="url(#8ff1ca597d)"><path fill="#000000" d="M 321.574219 0.871094 L 53.289062 0.871094 C 51.816406 0.875 50.34375 0.949219 48.875 1.09375 C 47.40625 1.242188 45.949219 1.457031 44.503906 1.746094 C 43.058594 2.035156 41.628906 2.394531 40.21875 2.824219 C 38.804688 3.253906 37.417969 3.753906 36.058594 4.316406 C 34.695312 4.882812 33.363281 5.515625 32.0625 6.210938 C 30.761719 6.90625 29.5 7.664062 28.273438 8.484375 C 27.046875 9.304688 25.863281 10.183594 24.722656 11.121094 C 23.582031 12.054688 22.492188 13.046875 21.449219 14.089844 C 20.40625 15.132812 19.414062 16.222656 18.480469 17.363281 C 17.542969 18.503906 16.664062 19.6875 15.84375 20.914062 C 15.027344 22.140625 14.269531 23.40625 13.570312 24.707031 C 12.875 26.007812 12.246094 27.339844 11.679688 28.703125 C 11.113281 30.066406 10.617188 31.453125 10.1875 32.867188 C 9.757812 34.277344 9.398438 35.707031 9.109375 37.152344 C 8.820312 38.601562 8.605469 40.058594 8.457031 41.527344 C 8.3125 42.996094 8.238281 44.46875 8.234375 45.941406 L 8.234375 329.703125 C 8.238281 331.175781 8.3125 332.648438 8.457031 334.117188 C 8.605469 335.585938 8.820312 337.042969 9.109375 338.488281 C 9.398438 339.9375 9.757812 341.367188 10.1875 342.777344 C 10.617188 344.1875 11.113281 345.578125 11.679688 346.941406 C 12.246094 348.300781 12.875 349.632812 13.570312 350.933594 C 14.269531 352.234375 15.027344 353.5 15.847656 354.726562 C 16.664062 355.953125 17.542969 357.136719 18.480469 358.277344 C 19.414062 359.417969 20.40625 360.507812 21.449219 361.550781 C 22.492188 362.59375 23.582031 363.585938 24.722656 364.519531 C 25.863281 365.457031 27.046875 366.335938 28.273438 367.15625 C 29.5 367.976562 30.761719 368.734375 32.0625 369.429688 C 33.363281 370.125 34.695312 370.757812 36.058594 371.320312 C 37.421875 371.886719 38.808594 372.382812 40.21875 372.8125 C 41.628906 373.242188 43.058594 373.601562 44.503906 373.890625 C 45.949219 374.179688 47.40625 374.398438 48.875 374.542969 C 50.34375 374.6875 51.816406 374.761719 53.289062 374.765625 L 321.574219 374.765625 C 323.046875 374.761719 324.519531 374.6875 325.988281 374.542969 C 327.457031 374.398438 328.914062 374.179688 330.359375 373.890625 C 331.804688 373.601562 333.234375 373.242188 334.644531 372.8125 C 336.058594 372.382812 337.445312 371.886719 338.804688 371.320312 C 340.167969 370.757812 341.5 370.125 342.800781 369.429688 C 344.101562 368.734375 345.363281 367.976562 346.589844 367.15625 C 347.816406 366.335938 349 365.457031 350.140625 364.519531 C 351.28125 363.585938 352.371094 362.59375 353.414062 361.550781 C 354.457031 360.507812 355.449219 359.417969 356.382812 358.277344 C 357.320312 357.136719 358.199219 355.953125 359.015625 354.726562 C 359.835938 353.5 360.59375 352.234375 361.292969 350.933594 C 361.988281 349.632812 362.617188 348.300781 363.183594 346.941406 C 363.75 345.578125 364.246094 344.1875 364.675781 342.777344 C 365.105469 341.367188 365.464844 339.9375 365.753906 338.488281 C 366.042969 337.042969 366.257812 335.585938 366.40625 334.117188 C 366.550781 332.648438 366.625 331.175781 366.628906 329.703125 L 366.628906 45.941406 C 366.625 44.46875 366.550781 42.996094 366.40625 41.527344 C 366.257812 40.058594 366.042969 38.601562 365.753906 37.152344 C 365.464844 35.707031 365.105469 34.277344 364.675781 32.867188 C 364.246094 31.453125 363.75 30.066406 363.183594 28.703125 C 362.617188 27.339844 361.988281 26.007812 361.292969 24.707031 C 360.597656 23.40625 359.839844 22.140625 359.019531 20.914062 C 358.199219 19.6875 357.320312 18.503906 356.382812 17.363281 C 355.449219 16.222656 354.460938 15.132812 353.417969 14.089844 C 352.371094 13.046875 351.28125 12.054688 350.140625 11.121094 C 349 10.183594 347.816406 9.304688 346.589844 8.484375 C 345.367188 7.664062 344.101562 6.90625 342.800781 6.210938 C 341.5 5.515625 340.167969 4.882812 338.808594 4.316406 C 337.445312 3.753906 336.058594 3.253906 334.644531 2.824219 C 333.234375 2.394531 331.804688 2.035156 330.359375 1.746094 C 328.914062 1.457031 327.457031 1.242188 325.988281 1.09375 C 324.519531 0.949219 323.046875 0.875 321.574219 0.871094 Z M 350.695312 329.703125 C 350.691406 330.65625 350.644531 331.605469 350.550781 332.554688 C 350.457031 333.503906 350.316406 334.445312 350.128906 335.382812 C 349.941406 336.316406 349.707031 337.242188 349.429688 338.152344 C 349.152344 339.066406 348.832031 339.960938 348.46875 340.84375 C 348.101562 341.722656 347.695312 342.582031 347.242188 343.425781 C 346.792969 344.265625 346.304688 345.082031 345.773438 345.875 C 345.246094 346.667969 344.675781 347.433594 344.070312 348.167969 C 343.46875 348.90625 342.828125 349.613281 342.152344 350.285156 C 341.480469 350.960938 340.773438 351.601562 340.035156 352.207031 C 339.300781 352.808594 338.535156 353.378906 337.742188 353.90625 C 336.949219 354.4375 336.132812 354.925781 335.292969 355.378906 C 334.453125 355.828125 333.589844 356.234375 332.710938 356.601562 C 331.832031 356.964844 330.933594 357.285156 330.023438 357.5625 C 329.109375 357.839844 328.1875 358.074219 327.25 358.261719 C 326.316406 358.445312 325.375 358.585938 324.425781 358.683594 C 323.476562 358.777344 322.527344 358.824219 321.574219 358.824219 L 53.289062 358.824219 C 52.335938 358.824219 51.386719 358.777344 50.4375 358.679688 C 49.488281 358.585938 48.546875 358.445312 47.613281 358.261719 C 46.675781 358.074219 45.753906 357.839844 44.839844 357.5625 C 43.929688 357.285156 43.03125 356.964844 42.152344 356.601562 C 41.273438 356.234375 40.410156 355.828125 39.570312 355.378906 C 38.730469 354.925781 37.914062 354.4375 37.121094 353.90625 C 36.328125 353.378906 35.5625 352.808594 34.828125 352.207031 C 34.089844 351.601562 33.382812 350.960938 32.710938 350.285156 C 32.035156 349.613281 31.398438 348.90625 30.792969 348.167969 C 30.1875 347.433594 29.621094 346.667969 29.089844 345.875 C 28.558594 345.082031 28.070312 344.265625 27.621094 343.425781 C 27.167969 342.582031 26.761719 341.722656 26.398438 340.84375 C 26.03125 339.960938 25.710938 339.066406 25.433594 338.152344 C 25.15625 337.242188 24.921875 336.316406 24.734375 335.382812 C 24.546875 334.445312 24.40625 333.503906 24.3125 332.554688 C 24.21875 331.605469 24.171875 330.65625 24.167969 329.703125 L 24.167969 45.941406 C 24.171875 44.988281 24.21875 44.039062 24.3125 43.089844 C 24.40625 42.140625 24.546875 41.195312 24.734375 40.261719 C 24.921875 39.328125 25.152344 38.402344 25.429688 37.488281 C 25.707031 36.578125 26.03125 35.679688 26.394531 34.800781 C 26.761719 33.917969 27.167969 33.058594 27.617188 32.21875 C 28.066406 31.375 28.558594 30.558594 29.085938 29.765625 C 29.617188 28.972656 30.183594 28.207031 30.789062 27.472656 C 31.394531 26.734375 32.035156 26.027344 32.707031 25.351562 C 33.382812 24.679688 34.085938 24.039062 34.824219 23.433594 C 35.5625 22.828125 36.328125 22.261719 37.117188 21.730469 C 37.910156 21.199219 38.726562 20.710938 39.570312 20.261719 C 40.410156 19.8125 41.269531 19.402344 42.152344 19.039062 C 43.03125 18.671875 43.929688 18.351562 44.839844 18.074219 C 45.753906 17.796875 46.675781 17.5625 47.609375 17.375 C 48.546875 17.191406 49.488281 17.050781 50.4375 16.957031 C 51.386719 16.859375 52.335938 16.8125 53.289062 16.8125 L 321.574219 16.8125 C 322.527344 16.8125 323.476562 16.859375 324.425781 16.957031 C 325.375 17.050781 326.316406 17.191406 327.253906 17.375 C 328.1875 17.5625 329.109375 17.796875 330.023438 18.074219 C 330.9375 18.351562 331.832031 18.671875 332.710938 19.039062 C 333.59375 19.402344 334.453125 19.8125 335.292969 20.261719 C 336.136719 20.710938 336.953125 21.199219 337.746094 21.730469 C 338.539062 22.261719 339.300781 22.828125 340.039062 23.433594 C 340.777344 24.039062 341.480469 24.679688 342.15625 25.351562 C 342.828125 26.027344 343.46875 26.734375 344.074219 27.472656 C 344.679688 28.207031 345.246094 28.972656 345.777344 29.765625 C 346.304688 30.558594 346.796875 31.375 347.246094 32.21875 C 347.695312 33.058594 348.105469 33.917969 348.46875 34.800781 C 348.835938 35.679688 349.15625 36.578125 349.433594 37.488281 C 349.710938 38.402344 349.941406 39.328125 350.128906 40.261719 C 350.316406 41.195312 350.457031 42.140625 350.550781 43.089844 C 350.644531 44.039062 350.691406 44.988281 350.695312 45.941406 Z M 350.695312 329.703125 " fill-opacity="1" fill-rule="nonzero"/></g><g clip-path="url(#2d7cbcd7b3)"><path fill="#040606" d="M 182.453125 81.320312 C 187.851562 82.128906 193.25 83.007812 198.644531 83.742188 C 209.144531 85.246094 211.53125 87.8125 210.503906 97.785156 C 206.023438 142.597656 201.472656 187.449219 196.882812 232.261719 C 196.589844 235.269531 196.917969 238.386719 196.148438 241.246094 C 195.597656 243.375 193.726562 245.132812 192.441406 247.078125 C 190.898438 245.171875 188.367188 243.445312 188 241.355469 C 185.023438 223.570312 182.234375 205.785156 179.773438 187.925781 C 175.257812 154.957031 170.964844 121.988281 166.816406 88.984375 C 166.519531 86.527344 167.878906 83.886719 168.46875 81.320312 Z M 190.53125 208.460938 L 191.523438 208.277344 C 195.671875 169.957031 199.785156 131.597656 204.003906 92.503906 L 173.679688 88.875 C 179.371094 129.140625 184.914062 168.820312 190.53125 208.460938 Z M 125.878906 251.292969 C 125.21875 252.429688 124.632812 254.816406 123.417969 255.183594 C 121.804688 255.660156 119.085938 255.21875 117.949219 254.082031 C 115.050781 251.109375 112.441406 247.8125 110.238281 244.289062 C 83.292969 201.859375 60.199219 157.414062 39.640625 111.609375 C 37.988281 107.980469 37.546875 104.421875 41.917969 103.03125 C 51.570312 99.984375 61.375 97.308594 71.25 94.851562 C 77.085938 93.386719 79.949219 96.355469 81.640625 102.039062 C 95.773438 150.261719 110.167969 198.414062 124.484375 246.601562 Z M 105.429688 223.351562 L 107.925781 222.433594 C 95.921875 182.9375 83.878906 143.480469 71.46875 102.773438 L 47.054688 110.769531 C 66.808594 148.871094 86.117188 186.09375 105.429688 223.351562 Z M 330.703125 151.949219 C 329.636719 153.601562 328.683594 155.433594 327.398438 156.972656 C 298.800781 190.785156 270.199219 224.597656 241.5625 258.371094 C 239.46875 260.828125 237.855469 263.761719 235.503906 265.890625 C 234.292969 266.988281 231.980469 266.878906 230.183594 267.320312 C 229.851562 265.671875 228.824219 263.726562 229.375 262.441406 C 231.6875 256.90625 234.515625 251.589844 237.082031 246.160156 C 254.816406 208.570312 272.585938 170.984375 290.316406 133.394531 C 296.558594 120.121094 298.175781 119.019531 309.703125 128.078125 C 317.191406 133.945312 323.03125 141.9375 329.566406 149.015625 C 330.152344 149.640625 330.261719 150.703125 330.703125 151.949219 Z M 253.789062 230.171875 L 254.851562 231.308594 C 276.699219 205.492188 298.578125 179.746094 320.277344 153.785156 C 321.378906 152.5 321.5625 148.722656 320.570312 147.734375 C 314.144531 141.351562 307.28125 135.449219 300.265625 129.105469 C 284.222656 163.941406 269.023438 197.058594 253.789062 230.171875 Z M 253.789062 230.171875 " fill-opacity="1" fill-rule="nonzero"/></g></svg>