<svg xmlns="http://www.w3.org/2000/svg" xmlns:xlink="http://www.w3.org/1999/xlink" width="500" zoomAndPan="magnify" viewBox="0 0 375 374.999991" height="500" preserveAspectRatio="xMidYMid meet" version="1.0"><defs><clipPath id="c865a0bf17"><path d="M 8.183594 0 L 366.683594 0 L 366.683594 375 L 8.183594 375 Z M 8.183594 0 " clip-rule="nonzero"/></clipPath><clipPath id="eb11b07cf5"><path d="M 89 101 L 286 101 L 286 297.167969 L 89 297.167969 Z M 89 101 " clip-rule="nonzero"/></clipPath><clipPath id="13f283d5b7"><path d="M 326 153 L 349.167969 153 L 349.167969 165 L 326 165 Z M 326 153 " clip-rule="nonzero"/></clipPath><clipPath id="1621f37828"><path d="M 326 176 L 349.167969 176 L 349.167969 223 L 326 223 Z M 326 176 " clip-rule="nonzero"/></clipPath><clipPath id="132df10e93"><path d="M 25.917969 233 L 50 233 L 50 246 L 25.917969 246 Z M 25.917969 233 " clip-rule="nonzero"/></clipPath><clipPath id="108a933527"><path d="M 25.917969 176 L 50 176 L 50 223 L 25.917969 223 Z M 25.917969 176 " clip-rule="nonzero"/></clipPath><clipPath id="91751f78ff"><path d="M 326 233 L 349.167969 233 L 349.167969 246 L 326 246 Z M 326 233 " clip-rule="nonzero"/></clipPath><clipPath id="351cf59e4a"><path d="M 170 78.167969 L 205 78.167969 L 205 92 L 170 92 Z M 170 78.167969 " clip-rule="nonzero"/></clipPath><clipPath id="8b377513e2"><path d="M 25.917969 153 L 50 153 L 50 165 L 25.917969 165 Z M 25.917969 153 " clip-rule="nonzero"/></clipPath></defs><g clip-path="url(#c865a0bf17)"><path fill="#000000" d="M 321.574219 0.871094 L 53.289062 0.871094 C 51.816406 0.875 50.34375 0.949219 48.875 1.09375 C 47.40625 1.242188 45.949219 1.457031 44.503906 1.746094 C 43.058594 2.035156 41.628906 2.394531 40.21875 2.824219 C 38.804688 3.253906 37.417969 3.753906 36.058594 4.316406 C 34.695312 4.882812 33.363281 5.515625 32.0625 6.210938 C 30.761719 6.90625 29.5 7.664062 28.273438 8.484375 C 27.046875 9.304688 25.863281 10.183594 24.722656 11.121094 C 23.582031 12.054688 22.492188 13.046875 21.449219 14.089844 C 20.40625 15.132812 19.414062 16.222656 18.480469 17.363281 C 17.542969 18.503906 16.664062 19.6875 15.84375 20.914062 C 15.027344 22.140625 14.269531 23.40625 13.570312 24.707031 C 12.875 26.007812 12.246094 27.339844 11.679688 28.703125 C 11.113281 30.066406 10.617188 31.453125 10.1875 32.867188 C 9.757812 34.277344 9.398438 35.707031 9.109375 37.152344 C 8.820312 38.601562 8.605469 40.058594 8.457031 41.527344 C 8.3125 42.996094 8.238281 44.46875 8.234375 45.941406 L 8.234375 329.703125 C 8.238281 331.175781 8.3125 332.648438 8.457031 334.117188 C 8.605469 335.585938 8.820312 337.042969 9.109375 338.488281 C 9.398438 339.9375 9.757812 341.367188 10.1875 342.777344 C 10.617188 344.1875 11.113281 345.578125 11.679688 346.941406 C 12.246094 348.300781 12.875 349.632812 13.570312 350.933594 C 14.269531 352.234375 15.027344 353.5 15.847656 354.726562 C 16.664062 355.953125 17.542969 357.136719 18.480469 358.277344 C 19.414062 359.417969 20.40625 360.507812 21.449219 361.550781 C 22.492188 362.59375 23.582031 363.585938 24.722656 364.519531 C 25.863281 365.457031 27.046875 366.335938 28.273438 367.15625 C 29.5 367.976562 30.761719 368.734375 32.0625 369.429688 C 33.363281 370.125 34.695312 370.757812 36.058594 371.320312 C 37.421875 371.886719 38.808594 372.382812 40.21875 372.8125 C 41.628906 373.242188 43.058594 373.601562 44.503906 373.890625 C 45.949219 374.179688 47.40625 374.398438 48.875 374.542969 C 50.34375 374.6875 51.816406 374.761719 53.289062 374.765625 L 321.574219 374.765625 C 323.046875 374.761719 324.519531 374.6875 325.988281 374.542969 C 327.457031 374.398438 328.914062 374.179688 330.359375 373.890625 C 331.804688 373.601562 333.234375 373.242188 334.644531 372.8125 C 336.058594 372.382812 337.445312 371.886719 338.804688 371.320312 C 340.167969 370.757812 341.5 370.125 342.800781 369.429688 C 344.101562 368.734375 345.363281 367.976562 346.589844 367.15625 C 347.816406 366.335938 349 365.457031 350.140625 364.519531 C 351.28125 363.585938 352.371094 362.59375 353.414062 361.550781 C 354.457031 360.507812 355.449219 359.417969 356.382812 358.277344 C 357.320312 357.136719 358.199219 355.953125 359.015625 354.726562 C 359.835938 353.5 360.59375 352.234375 361.292969 350.933594 C 361.988281 349.632812 362.617188 348.300781 363.183594 346.941406 C 363.75 345.578125 364.246094 344.1875 364.675781 342.777344 C 365.105469 341.367188 365.464844 339.9375 365.753906 338.488281 C 366.042969 337.042969 366.257812 335.585938 366.40625 334.117188 C 366.550781 332.648438 366.625 331.175781 366.628906 329.703125 L 366.628906 45.941406 C 366.625 44.46875 366.550781 42.996094 366.40625 41.527344 C 366.257812 40.058594 366.042969 38.601562 365.753906 37.152344 C 365.464844 35.707031 365.105469 34.277344 364.675781 32.867188 C 364.246094 31.453125 363.75 30.066406 363.183594 28.703125 C 362.617188 27.339844 361.988281 26.007812 361.292969 24.707031 C 360.597656 23.40625 359.839844 22.140625 359.019531 20.914062 C 358.199219 19.6875 357.320312 18.503906 356.382812 17.363281 C 355.449219 16.222656 354.460938 15.132812 353.417969 14.089844 C 352.371094 13.046875 351.28125 12.054688 350.140625 11.121094 C 349 10.183594 347.816406 9.304688 346.589844 8.484375 C 345.367188 7.664062 344.101562 6.90625 342.800781 6.210938 C 341.5 5.515625 340.167969 4.882812 338.808594 4.316406 C 337.445312 3.753906 336.058594 3.253906 334.644531 2.824219 C 333.234375 2.394531 331.804688 2.035156 330.359375 1.746094 C 328.914062 1.457031 327.457031 1.242188 325.988281 1.09375 C 324.519531 0.949219 323.046875 0.875 321.574219 0.871094 Z M 350.695312 329.703125 C 350.691406 330.65625 350.644531 331.605469 350.550781 332.554688 C 350.457031 333.503906 350.316406 334.445312 350.128906 335.382812 C 349.941406 336.316406 349.707031 337.242188 349.429688 338.152344 C 349.152344 339.066406 348.832031 339.960938 348.46875 340.84375 C 348.101562 341.722656 347.695312 342.582031 347.242188 343.425781 C 346.792969 344.265625 346.304688 345.082031 345.773438 345.875 C 345.246094 346.667969 344.675781 347.433594 344.070312 348.167969 C 343.46875 348.90625 342.828125 349.613281 342.152344 350.285156 C 341.480469 350.960938 340.773438 351.601562 340.035156 352.207031 C 339.300781 352.808594 338.535156 353.378906 337.742188 353.90625 C 336.949219 354.4375 336.132812 354.925781 335.292969 355.378906 C 334.453125 355.828125 333.589844 356.234375 332.710938 356.601562 C 331.832031 356.964844 330.933594 357.285156 330.023438 357.5625 C 329.109375 357.839844 328.1875 358.074219 327.25 358.261719 C 326.316406 358.445312 325.375 358.585938 324.425781 358.683594 C 323.476562 358.777344 322.527344 358.824219 321.574219 358.824219 L 53.289062 358.824219 C 52.335938 358.824219 51.386719 358.777344 50.4375 358.679688 C 49.488281 358.585938 48.546875 358.445312 47.613281 358.261719 C 46.675781 358.074219 45.753906 357.839844 44.839844 357.5625 C 43.929688 357.285156 43.03125 356.964844 42.152344 356.601562 C 41.273438 356.234375 40.410156 355.828125 39.570312 355.378906 C 38.730469 354.925781 37.914062 354.4375 37.121094 353.90625 C 36.328125 353.378906 35.5625 352.808594 34.828125 352.207031 C 34.089844 351.601562 33.382812 350.960938 32.710938 350.285156 C 32.035156 349.613281 31.398438 348.90625 30.792969 348.167969 C 30.1875 347.433594 29.621094 346.667969 29.089844 345.875 C 28.558594 345.082031 28.070312 344.265625 27.621094 343.425781 C 27.167969 342.582031 26.761719 341.722656 26.398438 340.84375 C 26.03125 339.960938 25.710938 339.066406 25.433594 338.152344 C 25.15625 337.242188 24.921875 336.316406 24.734375 335.382812 C 24.546875 334.445312 24.40625 333.503906 24.3125 332.554688 C 24.21875 331.605469 24.171875 330.65625 24.167969 329.703125 L 24.167969 45.941406 C 24.171875 44.988281 24.21875 44.039062 24.3125 43.089844 C 24.40625 42.140625 24.546875 41.195312 24.734375 40.261719 C 24.921875 39.328125 25.152344 38.402344 25.429688 37.488281 C 25.707031 36.578125 26.03125 35.679688 26.394531 34.800781 C 26.761719 33.917969 27.167969 33.058594 27.617188 32.21875 C 28.066406 31.375 28.558594 30.558594 29.085938 29.765625 C 29.617188 28.972656 30.183594 28.207031 30.789062 27.472656 C 31.394531 26.734375 32.035156 26.027344 32.707031 25.351562 C 33.382812 24.679688 34.085938 24.039062 34.824219 23.433594 C 35.5625 22.828125 36.328125 22.261719 37.117188 21.730469 C 37.910156 21.199219 38.726562 20.710938 39.570312 20.261719 C 40.410156 19.8125 41.269531 19.402344 42.152344 19.039062 C 43.03125 18.671875 43.929688 18.351562 44.839844 18.074219 C 45.753906 17.796875 46.675781 17.5625 47.609375 17.375 C 48.546875 17.191406 49.488281 17.050781 50.4375 16.957031 C 51.386719 16.859375 52.335938 16.8125 53.289062 16.8125 L 321.574219 16.8125 C 322.527344 16.8125 323.476562 16.859375 324.425781 16.957031 C 325.375 17.050781 326.316406 17.191406 327.253906 17.375 C 328.1875 17.5625 329.109375 17.796875 330.023438 18.074219 C 330.9375 18.351562 331.832031 18.671875 332.710938 19.039062 C 333.59375 19.402344 334.453125 19.8125 335.292969 20.261719 C 336.136719 20.710938 336.953125 21.199219 337.746094 21.730469 C 338.539062 22.261719 339.300781 22.828125 340.039062 23.433594 C 340.777344 24.039062 341.480469 24.679688 342.15625 25.351562 C 342.828125 26.027344 343.46875 26.734375 344.074219 27.472656 C 344.679688 28.207031 345.246094 28.972656 345.777344 29.765625 C 346.304688 30.558594 346.796875 31.375 347.246094 32.21875 C 347.695312 33.058594 348.105469 33.917969 348.46875 34.800781 C 348.835938 35.679688 349.15625 36.578125 349.433594 37.488281 C 349.710938 38.402344 349.941406 39.328125 350.128906 40.261719 C 350.316406 41.195312 350.457031 42.140625 350.550781 43.089844 C 350.644531 44.039062 350.691406 44.988281 350.695312 45.941406 Z M 350.695312 329.703125 " fill-opacity="1" fill-rule="nonzero"/></g><g clip-path="url(#eb11b07cf5)"><path fill="#040606" d="M 274.128906 199.191406 C 274.128906 246.859375 235.300781 285.617188 187.542969 285.617188 C 139.789062 285.617188 100.960938 246.859375 100.960938 199.191406 C 100.960938 151.523438 139.789062 112.765625 187.542969 112.765625 C 235.300781 112.765625 274.128906 151.523438 274.128906 199.191406 Z M 89.414062 199.191406 C 89.414062 253.207031 133.429688 297.140625 187.542969 297.140625 C 241.660156 297.140625 285.675781 253.207031 285.675781 199.191406 C 285.675781 145.175781 241.660156 101.242188 187.542969 101.242188 C 133.429688 101.242188 89.414062 145.175781 89.414062 199.191406 " fill-opacity="1" fill-rule="nonzero"/></g><path fill="#040606" d="M 187.542969 135.8125 C 190.722656 135.8125 193.316406 138.402344 193.316406 141.574219 L 193.316406 147.335938 C 193.316406 150.507812 190.722656 153.097656 187.542969 153.097656 C 184.367188 153.097656 181.773438 150.507812 181.773438 147.335938 L 181.773438 141.574219 C 181.773438 138.402344 184.367188 135.8125 187.542969 135.8125 Z M 232.4375 154.382812 C 233.566406 155.507812 234.128906 156.96875 234.128906 158.453125 C 234.128906 159.917969 233.566406 161.402344 232.4375 162.527344 L 228.355469 166.601562 C 226.101562 168.851562 222.449219 168.851562 220.195312 166.601562 C 217.9375 164.351562 217.9375 160.707031 220.195312 158.453125 L 224.277344 154.382812 C 226.53125 152.128906 230.183594 152.128906 232.4375 154.382812 Z M 195.910156 182.515625 C 197.917969 183.527344 199.089844 185.550781 199.089844 187.667969 C 199.089844 188.546875 198.886719 189.421875 198.480469 190.257812 L 192.707031 201.78125 C 192.03125 203.128906 190.8125 204.164062 189.371094 204.660156 L 154.738281 216.183594 C 151.714844 217.175781 148.445312 215.554688 147.429688 212.539062 C 146.417969 209.5 148.0625 206.257812 151.085938 205.246094 L 183.441406 194.488281 L 188.152344 185.078125 C 189.574219 182.246094 193.046875 181.097656 195.910156 182.515625 Z M 245.269531 193.429688 C 248.445312 193.429688 251.039062 196.019531 251.039062 199.191406 C 251.039062 202.363281 248.445312 204.953125 245.269531 204.953125 L 239.496094 204.953125 C 236.316406 204.953125 233.722656 202.363281 233.722656 199.191406 C 233.722656 196.019531 236.316406 193.429688 239.496094 193.429688 Z M 154.894531 231.78125 C 156.023438 232.90625 156.585938 234.390625 156.585938 235.855469 C 156.585938 237.339844 156.023438 238.804688 154.894531 239.929688 L 150.8125 244.003906 C 148.558594 246.253906 144.90625 246.253906 142.652344 244.003906 C 140.394531 241.75 140.394531 238.105469 142.652344 235.855469 L 146.730469 231.78125 C 148.988281 229.53125 152.640625 229.53125 154.894531 231.78125 Z M 228.355469 231.78125 L 232.4375 235.855469 C 233.566406 236.980469 234.128906 238.464844 234.128906 239.929688 C 234.128906 241.414062 233.566406 242.878906 232.4375 244.003906 C 230.183594 246.253906 226.53125 246.253906 224.277344 244.003906 L 220.195312 239.929688 C 217.9375 237.679688 217.9375 234.03125 220.195312 231.78125 C 222.449219 229.53125 226.101562 229.53125 228.355469 231.78125 Z M 193.316406 251.046875 L 193.316406 256.808594 C 193.316406 259.980469 190.722656 262.570312 187.542969 262.570312 C 184.367188 262.570312 181.773438 259.980469 181.773438 256.808594 L 181.773438 251.046875 C 181.773438 247.875 184.367188 245.285156 187.542969 245.285156 C 190.722656 245.285156 193.316406 247.875 193.316406 251.046875 Z M 129.820312 204.953125 C 126.640625 204.953125 124.050781 202.363281 124.050781 199.191406 C 124.050781 196.019531 126.640625 193.429688 129.820312 193.429688 L 135.59375 193.429688 C 138.773438 193.429688 141.367188 196.019531 141.367188 199.191406 C 141.367188 202.363281 138.773438 204.953125 135.59375 204.953125 Z M 146.730469 166.601562 L 142.652344 162.527344 C 140.394531 160.277344 140.394531 156.632812 142.652344 154.382812 C 144.90625 152.128906 148.558594 152.128906 150.8125 154.382812 L 154.894531 158.453125 C 156.023438 159.578125 156.585938 161.042969 156.585938 162.527344 C 156.585938 163.992188 156.023438 165.476562 154.894531 166.601562 C 152.640625 168.851562 148.988281 168.851562 146.730469 166.601562 Z M 112.503906 199.191406 C 112.503906 240.492188 146.167969 274.09375 187.542969 274.09375 C 228.921875 274.09375 262.585938 240.492188 262.585938 199.191406 C 262.585938 157.890625 228.921875 124.289062 187.542969 124.289062 C 146.167969 124.289062 112.503906 157.890625 112.503906 199.191406 " fill-opacity="1" fill-rule="nonzero"/><g clip-path="url(#13f283d5b7)"><path fill="#040606" d="M 349.167969 164.621094 L 349.167969 153.097656 L 326.082031 153.097656 L 326.082031 164.621094 L 349.167969 164.621094 " fill-opacity="1" fill-rule="nonzero"/></g><g clip-path="url(#1621f37828)"><path fill="#040606" d="M 349.167969 222.238281 L 349.167969 176.144531 L 326.082031 176.144531 L 326.082031 222.238281 L 349.167969 222.238281 " fill-opacity="1" fill-rule="nonzero"/></g><path fill="#040606" d="M 294.738281 176.144531 C 296.316406 183.570312 297.21875 191.292969 297.21875 199.191406 C 297.21875 207.089844 296.316406 214.8125 294.738281 222.238281 L 314.535156 222.238281 L 314.535156 176.144531 L 294.738281 176.144531 " fill-opacity="1" fill-rule="nonzero"/><path fill="#040606" d="M 91.625 252.128906 C 88.378906 246.296875 85.695312 240.152344 83.550781 233.761719 L 60.554688 233.761719 L 60.554688 245.285156 C 69.957031 245.285156 80.351562 247.582031 91.625 252.128906 " fill-opacity="1" fill-rule="nonzero"/><g clip-path="url(#132df10e93)"><path fill="#040606" d="M 25.917969 233.761719 L 25.917969 245.285156 L 49.007812 245.285156 L 49.007812 233.761719 L 25.917969 233.761719 " fill-opacity="1" fill-rule="nonzero"/></g><path fill="#040606" d="M 80.351562 222.238281 C 78.773438 214.8125 77.871094 207.089844 77.871094 199.191406 C 77.871094 191.292969 78.773438 183.570312 80.351562 176.144531 L 60.554688 176.144531 L 60.554688 222.238281 L 80.351562 222.238281 " fill-opacity="1" fill-rule="nonzero"/><g clip-path="url(#108a933527)"><path fill="#040606" d="M 25.917969 176.144531 L 25.917969 222.238281 L 49.007812 222.238281 L 49.007812 176.144531 L 25.917969 176.144531 " fill-opacity="1" fill-rule="nonzero"/></g><g clip-path="url(#91751f78ff)"><path fill="#040606" d="M 326.082031 245.285156 L 349.167969 245.285156 L 349.167969 233.761719 L 326.082031 233.761719 L 326.082031 245.285156 " fill-opacity="1" fill-rule="nonzero"/></g><path fill="#040606" d="M 314.535156 245.285156 L 314.535156 233.761719 L 291.535156 233.761719 C 289.394531 240.152344 286.710938 246.296875 283.464844 252.128906 C 294.738281 247.582031 305.15625 245.285156 314.535156 245.285156 " fill-opacity="1" fill-rule="nonzero"/><path fill="#040606" d="M 314.535156 164.621094 L 314.535156 153.097656 C 305.15625 153.097656 294.738281 150.800781 283.464844 146.257812 C 286.710938 152.085938 289.394531 158.230469 291.535156 164.621094 L 314.535156 164.621094 " fill-opacity="1" fill-rule="nonzero"/><path fill="#040606" d="M 83.550781 164.621094 C 85.695312 158.230469 88.378906 152.085938 91.625 146.257812 C 80.351562 150.800781 69.957031 153.097656 60.554688 153.097656 L 60.554688 164.621094 L 83.550781 164.621094 " fill-opacity="1" fill-rule="nonzero"/><g clip-path="url(#351cf59e4a)"><path fill="#040606" d="M 204.863281 83.957031 C 204.863281 80.785156 202.269531 78.195312 199.089844 78.195312 L 176 78.195312 C 172.820312 78.195312 170.226562 80.785156 170.226562 83.957031 L 170.226562 91.226562 C 175.886719 90.328125 181.636719 89.71875 187.542969 89.71875 C 193.453125 89.71875 199.203125 90.328125 204.863281 91.226562 L 204.863281 83.957031 " fill-opacity="1" fill-rule="nonzero"/></g><g clip-path="url(#8b377513e2)"><path fill="#040606" d="M 25.917969 153.097656 L 25.917969 164.621094 L 49.007812 164.621094 L 49.007812 153.097656 L 25.917969 153.097656 " fill-opacity="1" fill-rule="nonzero"/></g></svg>