<svg xmlns="http://www.w3.org/2000/svg" xmlns:xlink="http://www.w3.org/1999/xlink" width="500" zoomAndPan="magnify" viewBox="0 0 375 374.999991" height="500" preserveAspectRatio="xMidYMid meet" version="1.0"><defs><clipPath id="0c71723ea4"><path d="M 0 0 L 374 0 L 374 358.5 L 0 358.5 Z M 0 0 " clip-rule="nonzero"/></clipPath></defs><g clip-path="url(#0c71723ea4)"><path fill="#000000" d="M 369.429688 334.03125 L 287.640625 252.273438 C 306.714844 226.058594 317.984375 193.824219 317.984375 159 C 317.984375 71.363281 246.660156 0.0664062 158.992188 0.0664062 C 71.324219 0.0664062 0 71.363281 0 159 C 0 246.640625 71.324219 317.9375 158.992188 317.9375 C 201.519531 317.9375 240.199219 301.160156 268.757812 273.878906 L 349.179688 354.273438 C 351.976562 357.070312 355.640625 358.464844 359.304688 358.464844 C 362.96875 358.464844 366.632812 357.070312 369.429688 354.273438 C 375.023438 348.683594 375.023438 339.621094 369.429688 334.03125 Z M 158.992188 289.308594 C 87.113281 289.308594 28.636719 230.855469 28.636719 159 C 28.636719 87.148438 87.113281 28.695312 158.992188 28.695312 C 230.871094 28.695312 289.347656 87.148438 289.347656 159 C 289.347656 230.855469 230.871094 289.308594 158.992188 289.308594 Z M 158.992188 289.308594 " fill-opacity="1" fill-rule="nonzero"/></g></svg>